<svg width="29" height="30" viewBox="0 0 29 30" fill="none" xmlns="http://www.w3.org/2000/svg">
<path d="M15.0046 11H10.0046V16H15.0046V11ZM14.2904 15.2857H10.7189V11.7143H14.2904V15.2857Z" fill="#BABABA" stroke="#BABABA"/>
<path d="M14.7105 23H10.2988C10.1361 23 10.0046 23.2235 10.0046 23.5C10.0046 23.7765 10.1361 24 10.2988 24H14.7105C14.8732 24 15.0046 23.7765 15.0046 23.5C15.0046 23.2235 14.8732 23 14.7105 23Z" fill="#BABABA" stroke="#BABABA"/>
<path d="M14.7105 19H10.2988C10.1361 19 10.0046 19.2235 10.0046 19.5C10.0046 19.7765 10.1361 20 10.2988 20H14.7105C14.8732 20 15.0046 19.7765 15.0046 19.5C15.0046 19.2235 14.8732 19 14.7105 19Z" fill="#BABABA" stroke="#BABABA"/>
<path d="M23.6517 11H18.3576C18.1624 11 18.0046 11.2235 18.0046 11.5C18.0046 11.7765 18.1624 12 18.3576 12H23.6517C23.8469 12 24.0046 11.7765 24.0046 11.5C24.0046 11.2235 23.8469 11 23.6517 11Z" fill="#BABABA" stroke="#BABABA"/>
<path d="M23.6517 15H18.3576C18.1624 15 18.0046 15.2235 18.0046 15.5C18.0046 15.7765 18.1624 16 18.3576 16H23.6517C23.8469 16 24.0046 15.7765 24.0046 15.5C24.0046 15.2235 23.8469 15 23.6517 15Z" fill="#BABABA" stroke="#BABABA"/>
<path d="M18.0046 24H24.0046V19H18.0046V24ZM18.8618 19.7143H23.1475V23.2857H18.8618V19.7143Z" fill="#BABABA" stroke="#BABABA"/>
<path d="M28 7.06667C28 7.05873 27.9958 7.0522 27.9953 7.04427V1H5.65516V15H0.999987V26.2C0.999987 27.7442 2.25269 29 3.79309 29H25.2069C26.7445 29 27.9953 27.7456 27.9953 26.2047V7.08907C27.9958 7.08113 28 7.0746 28 7.06667ZM27.0643 1.93333V6.6H6.58619V1.93333H27.0643ZM1.93102 26.2V15.9333H5.65516V26.2C5.65516 27.2295 4.82002 28.0667 3.79309 28.0667C2.76616 28.0667 1.93102 27.2295 1.93102 26.2ZM25.2069 28.0667H5.87349C5.88093 28.0583 5.88606 28.0485 5.89304 28.0401C5.988 27.9313 6.07459 27.8151 6.15187 27.6924C6.16444 27.6728 6.17607 27.6532 6.18818 27.6327C6.26359 27.5067 6.33016 27.3751 6.38509 27.2369C6.39254 27.2178 6.39906 27.1987 6.40604 27.1795C6.45957 27.0367 6.50333 26.8893 6.53312 26.7367C6.53592 26.7227 6.53685 26.7082 6.53964 26.6947C6.5685 26.5341 6.58619 26.3689 6.58619 26.2V15V7.53333H27.0643V26.2047C27.0643 27.2313 26.231 28.0667 25.2069 28.0667Z" fill="#BABABA" stroke="#BABABA"/>
</svg>
