<svg width="77" height="49" viewBox="0 0 77 49" fill="none" xmlns="http://www.w3.org/2000/svg">
<g clip-path="url(#clip0)">
<path d="M73.4931 43.7231H3.50693C1.52475 43.7231 0 42.2154 0 40.2554V14.0215C0 12.0615 1.52475 10.5538 3.50693 10.5538H73.5693C75.4752 10.5538 77.0762 12.0615 77.0762 14.0215V40.3308C77 42.2154 75.4752 43.7231 73.4931 43.7231Z" fill="#FEEFD8"/>
<path d="M73.4931 43.7231H3.50693C1.52475 43.7231 0 42.2154 0 40.2554V14.0215C0 12.0615 1.52475 10.5538 3.50693 10.5538H73.5693C75.4752 10.5538 77.0762 12.0615 77.0762 14.0215V40.3308C77 42.2154 75.4752 43.7231 73.4931 43.7231Z" fill="url(#paint0_linear)"/>
<path d="M69.5287 49H47.0386V2.63846C47.0386 1.20615 48.2584 0 49.7069 0H69.5287C70.9772 0 72.197 1.20615 72.197 2.63846V46.3615C72.197 47.7938 70.9772 49 69.5287 49Z" fill="#61C2C8"/>
<path d="M36.2891 17.4138H27.0644C25.6159 17.4138 24.3961 16.2077 24.3961 14.7754V5.65384C24.3961 4.22153 25.6159 3.01538 27.0644 3.01538H36.2891C37.7376 3.01538 38.9574 4.22153 38.9574 5.65384V14.7754C38.9574 16.2077 37.8139 17.4138 36.2891 17.4138Z" fill="#36AFC1"/>
<path d="M16.696 21.1831H7.4713C6.02278 21.1831 4.80298 19.9769 4.80298 18.5446V9.42307C4.80298 7.99076 6.02278 6.78461 7.4713 6.78461H16.696C18.1446 6.78461 19.3644 7.99076 19.3644 9.42307V18.5446C19.3644 19.9769 18.1446 21.1831 16.696 21.1831Z" fill="#FEEFD8"/>
<path d="M36.2891 36.1846H27.0644C25.6159 36.1846 24.3961 34.9784 24.3961 33.5461V24.4246C24.3961 22.9923 25.6159 21.7861 27.0644 21.7861H36.2891C37.7376 21.7861 38.9574 22.9923 38.9574 24.4246V33.5461C38.9574 34.9784 37.8139 36.1846 36.2891 36.1846Z" fill="#FDD089"/>
<path d="M16.696 39.9538H7.4713C6.02278 39.9538 4.80298 38.7477 4.80298 37.3154V28.1938C4.80298 26.7615 6.02278 25.5554 7.4713 25.5554H16.696C18.1446 25.5554 19.3644 26.7615 19.3644 28.1938V37.3154C19.3644 38.7477 18.1446 39.9538 16.696 39.9538Z" fill="#61C2C8"/>
<path d="M56.0347 4.37231L56.1109 7.08616H55.8822C55.5772 6.10616 55.2723 5.50308 55.0436 5.12616C54.8149 4.74924 54.4337 4.59847 53.9762 4.59847H53.8238V11.76H54.7386V11.9862H50.698V11.76H51.6129V4.59847H51.4604C51.003 4.59847 50.6218 4.74924 50.3931 5.12616C50.1644 5.50308 49.8594 6.10616 49.5545 7.08616H49.3257L49.402 4.37231H56.0347V4.37231Z" fill="#FEEFD8"/>
<path d="M69.9099 4.52307H57.7119V6.03076H69.9099V4.52307Z" fill="#FAFAFA"/>
<path d="M69.9099 7.53845H57.7119V9.04614H69.9099V7.53845Z" fill="#FAFAFA"/>
<path d="M69.9099 10.5538H57.7119V12.0615H69.9099V10.5538Z" fill="#FAFAFA"/>
<path d="M69.9099 13.5692H49.3257V15.0769H69.9099V13.5692Z" fill="#FAFAFA"/>
<path d="M69.9099 16.5846H49.3257V18.0923H69.9099V16.5846Z" fill="#FAFAFA"/>
<path d="M69.9099 37.6923H49.3257V39.2H69.9099V37.6923Z" fill="#FAFAFA"/>
<path d="M69.9099 40.7077H49.3257V42.2154H69.9099V40.7077Z" fill="#FAFAFA"/>
<path d="M69.9099 43.7231H49.3257V45.2308H69.9099V43.7231Z" fill="#FAFAFA"/>
<path d="M69.9099 33.9231H63.8109V35.4308H69.9099V33.9231Z" fill="#FDD089"/>
<path d="M69.9099 20.3538H49.3257V32.4154H69.9099V20.3538Z" fill="#FEEFD8"/>
<path d="M47.0386 45.2308H43.2267V49H47.0386V45.2308Z" fill="#61C2C8"/>
<path d="M43.2267 49C41.0921 49 39.4149 47.3415 39.4149 45.2308V41.4615H47.0386V45.2308C47.0386 47.3415 45.3614 49 43.2267 49Z" fill="#36AFC1"/>
</g>
<defs>
<linearGradient id="paint0_linear" x1="22.2491" y1="54.9709" x2="54.2054" y2="-1.00541" gradientUnits="userSpaceOnUse">
<stop stop-color="#FDD089"/>
<stop offset="1" stop-color="#FDD089" stop-opacity="0"/>
</linearGradient>
<clipPath id="clip0">
<rect width="77" height="49" fill="white"/>
</clipPath>
</defs>
</svg>
