<svg width="24" height="24" viewBox="0 0 24 24" fill="none" xmlns="http://www.w3.org/2000/svg">
<path d="M22.5882 9.29889H20.2941C19.9412 9.29889 19.6765 9.12177 19.5 8.76753C19.3235 8.41328 19.4118 8.05904 19.6765 7.79336L21.2647 6.19926C21.5294 5.93358 21.6176 5.6679 21.6176 5.31365C21.6176 4.95941 21.5294 4.69373 21.2647 4.42804L19.2353 2.39114C18.7941 1.94834 18 1.94834 17.4706 2.39114L15.8824 3.98524C15.6176 4.25092 15.2647 4.33948 14.9118 4.16236C14.5588 3.98524 14.3824 3.71956 14.3824 3.36531V1.23985C14.3824 0.531365 13.8529 0 13.1471 0H10.3235C9.61765 0 9.08823 0.531365 9.08823 1.23985V3.45387C9.08823 3.80812 8.91176 4.0738 8.55882 4.25092C8.38235 4.42804 8.02941 4.33948 7.76471 4.0738L6.17647 2.4797C5.73529 2.0369 4.94118 2.0369 4.41176 2.4797L2.47059 4.51661C2.20588 4.78229 2.11765 5.04797 2.11765 5.40221C2.11765 5.75646 2.20588 6.02214 2.47059 6.28782L4.05882 7.88192C4.32353 8.05904 4.41176 8.41328 4.23529 8.76753C4.05882 9.12177 3.79412 9.29889 3.44118 9.29889H1.23529C0.529412 9.29889 0 9.83026 0 10.5387V13.3727C0 14.0812 0.529412 14.6125 1.23529 14.6125H3.44118C3.79412 14.6125 4.05882 14.7897 4.23529 15.1439C4.41176 15.4982 4.32353 15.8524 4.05882 16.1181L2.47059 17.7122C2.20588 17.9779 2.11765 18.2435 2.11765 18.5978C2.11765 18.952 2.20588 19.2177 2.47059 19.4834L4.5 21.5203C4.94118 21.9631 5.73529 21.9631 6.26471 21.5203L7.85294 19.9262C8.11765 19.6605 8.47059 19.572 8.82353 19.7491C9.17647 19.9262 9.35294 20.1919 9.35294 20.5461V22.7601C9.35294 23.4686 9.88235 24 10.5882 24H13.4118C14.1176 24 14.6471 23.4686 14.6471 22.7601V20.369C14.6471 20.0148 14.8235 19.7491 15.1765 19.572C15.5294 19.3948 15.8824 19.4834 16.1471 19.7491L17.7353 21.3432C18.1765 21.786 18.9706 21.786 19.5 21.3432L21.5294 19.3063C21.7941 19.0406 21.8824 18.7749 21.8824 18.4207C21.8824 18.0664 21.7941 17.8007 21.5294 17.5351L19.9412 15.941C19.6765 15.6753 19.5882 15.321 19.7647 14.9668C19.9412 14.6125 20.2059 14.4354 20.5588 14.4354H22.7647C23.4706 14.4354 24 13.9041 24 13.1956V10.3616C23.7353 9.83026 23.2059 9.29889 22.5882 9.29889ZM11.9118 15.941C9.70588 15.941 7.94118 14.0812 7.94118 11.9557C7.94118 9.7417 9.70588 7.97048 11.9118 7.97048C14.1176 7.97048 15.8824 9.7417 15.8824 11.9557C15.8824 14.0812 14.0294 15.941 11.9118 15.941Z" fill="#BABABA"/>
</svg>
