<svg width="76" height="45" viewBox="0 0 76 45" fill="none" xmlns="http://www.w3.org/2000/svg">
<path d="M70.3969 12.1429H49.5652V45H70.3969V12.1429Z" fill="#36AFC1"/>
<path d="M20.8318 12.1429H0V45H20.8318V12.1429Z" fill="#36AFC1"/>
<path d="M49.5652 0H20.8318V45H49.5652V0Z" fill="#61C2C8"/>
<path d="M42.3819 36.4286H28.0151V45H42.3819V36.4286Z" fill="#FEEFD8"/>
<path d="M35.1985 20.7143C37.9755 20.7143 40.2268 18.4757 40.2268 15.7143C40.2268 12.9529 37.9755 10.7143 35.1985 10.7143C32.4214 10.7143 30.1701 12.9529 30.1701 15.7143C30.1701 18.4757 32.4214 20.7143 35.1985 20.7143Z" fill="#FEEFD8"/>
<path d="M36.1323 12.6429H34.3365V18.8572H36.1323V12.6429Z" fill="#FDD089"/>
<path d="M38.2874 16.6429V14.8572L32.0378 14.8572V16.6429H38.2874Z" fill="#FDD089"/>
<path d="M67.5236 21.4285V17.8571H63.9319V21.4285H67.5236Z" fill="#61C2C8"/>
<path d="M61.7769 21.4285V17.8571H58.1852V21.4285H61.7769Z" fill="#61C2C8"/>
<path d="M56.0302 21.4285V17.8571H52.4385V21.4285H56.0302Z" fill="#61C2C8"/>
<path d="M67.5236 27.1428V23.5714H63.9319V27.1428H67.5236Z" fill="#61C2C8"/>
<path d="M61.7769 27.1428V23.5714H58.1852V27.1428H61.7769Z" fill="#61C2C8"/>
<path d="M56.0302 27.1428V23.5714H52.4385V27.1428H56.0302Z" fill="#61C2C8"/>
<path d="M67.5236 32.8571V29.2857H63.9319V32.8571H67.5236Z" fill="#61C2C8"/>
<path d="M61.7769 32.8571V29.2857H58.1852V32.8571H61.7769Z" fill="#61C2C8"/>
<path d="M56.0302 32.8571V29.2857H52.4385V32.8571H56.0302Z" fill="#61C2C8"/>
<path d="M43.8185 36.4286V34.2857H26.5785V36.4286H43.8185Z" fill="#36AFC1"/>
<path d="M17.9584 21.4285V17.8571H14.3668V21.4285H17.9584Z" fill="#61C2C8"/>
<path d="M12.2117 21.4285V17.8571H8.62005V21.4285H12.2117Z" fill="#61C2C8"/>
<path d="M6.46503 21.4285L6.46503 17.8571H2.87334L2.87334 21.4285H6.46503Z" fill="#61C2C8"/>
<path d="M17.9584 27.1428V23.5714H14.3668V27.1428H17.9584Z" fill="#61C2C8"/>
<path d="M12.2117 27.1428V23.5714H8.62005V27.1428H12.2117Z" fill="#61C2C8"/>
<path d="M6.46503 27.1428L6.46503 23.5714H2.87334L2.87334 27.1428H6.46503Z" fill="#61C2C8"/>
<path d="M17.9584 32.8571V29.2857H14.3668V32.8571H17.9584Z" fill="#61C2C8"/>
<path d="M12.2117 32.8571V29.2857H8.62005V32.8571H12.2117Z" fill="#61C2C8"/>
<path d="M6.46503 32.8571L6.46503 29.2857H2.87334L2.87334 32.8571H6.46503Z" fill="#61C2C8"/>
<path d="M42.3819 36.4286H28.0151V45H42.3819V36.4286Z" fill="url(#paint0_linear)"/>
<path d="M74.3479 30.9286C73.2704 29.8571 71.9055 29.2857 70.397 29.2857C68.8885 29.2857 67.5237 29.8571 66.4462 30.9286C64.5067 32.8571 64.2912 36.5 65.9433 38.6428L70.397 45L74.8507 38.6428C76.5029 36.4286 76.2874 32.7857 74.3479 30.9286Z" fill="#FDD089"/>
<path d="M70.397 32.7857C69.3195 32.7857 68.3857 33.6428 68.3857 34.7143C68.3857 35.7857 69.2477 36.7143 70.397 36.7143C71.4745 36.7143 72.3365 35.8571 72.3365 34.7143C72.4084 33.6428 71.4745 32.7857 70.397 32.7857Z" fill="#FEEFD8"/>
<defs>
<linearGradient id="paint0_linear" x1="29.4518" y1="46.4286" x2="40.8802" y2="34.9354" gradientUnits="userSpaceOnUse">
<stop stop-color="#FDD089" stop-opacity="0"/>
<stop offset="1" stop-color="#FDD089"/>
</linearGradient>
</defs>
</svg>
