<svg width="26" height="26" viewBox="0 0 26 26" fill="none" xmlns="http://www.w3.org/2000/svg">
<path d="M13 26C20.1797 26 26 20.1797 26 13C26 5.8203 20.1797 0 13 0C5.8203 0 0 5.8203 0 13C0 20.1797 5.8203 26 13 26Z" fill="#D7EBEA"/>
<path d="M15.4494 16.2029C15.9204 15.8261 16.4856 15.9203 16.8624 16.3913C17.2392 16.8623 17.145 17.4275 16.674 17.8043C14.5073 19.5 11.4928 19.5 9.32618 17.8043C9.32618 17.8043 9.32618 17.8043 9.23198 17.8043C8.85517 17.4275 8.76096 16.7681 9.13777 16.3913C9.51459 16.0145 10.174 15.9203 10.5508 16.2971C12.0581 17.3333 13.9421 17.3333 15.4494 16.2029ZM7.91314 8.94925C9.04357 8.94925 9.8914 9.89128 9.8914 10.9275C9.8914 11.9637 9.04357 13 7.91314 13C6.7827 13 5.93488 12.0579 5.93488 11.0217C5.93488 9.98548 6.8769 8.94925 7.91314 8.94925ZM18.0871 8.94925C19.2175 8.94925 20.0653 9.89128 20.0653 10.9275C20.0653 11.9637 19.1233 12.9058 18.0871 12.9058C16.9566 12.9058 16.1088 11.9637 16.1088 10.9275C16.1088 9.89128 16.9566 8.94925 18.0871 8.94925Z" fill="#269CBC"/>
</svg>
