<svg width="26" height="26" viewBox="0 0 26 26" fill="none" xmlns="http://www.w3.org/2000/svg">
<path d="M13 26C20.1797 26 26 20.1797 26 13C26 5.8203 20.1797 0 13 0C5.8203 0 0 5.8203 0 13C0 20.1797 5.8203 26 13 26Z" fill="#FEEFD8"/>
<path d="M16.6739 17.2391C17.1449 17.6159 17.2391 18.1812 16.8623 18.6522C16.4855 19.1232 15.9203 19.2174 15.4492 18.8406C14.0362 17.8044 12.0579 17.8044 10.6449 18.8406C10.2681 19.2174 9.60867 19.1232 9.23185 18.7464C8.85504 18.3696 8.94925 17.7101 9.32606 17.3333C9.32606 17.3333 9.32606 17.3333 9.42026 17.3333C11.4927 15.6377 14.5072 15.6377 16.6739 17.2391ZM7.91301 8.94928C9.04345 8.94928 9.89128 9.89131 9.89128 10.9275C9.89128 11.9638 9.04345 13 7.91301 13C6.78258 13 5.93475 12.058 5.93475 11.0217C5.93475 9.98551 6.87678 8.94928 7.91301 8.94928ZM18.0869 8.94928C19.2174 8.94928 20.0652 9.89131 20.0652 10.9275C20.0652 11.9638 19.1232 12.9058 18.0869 12.9058C16.9565 12.9058 16.1087 11.9638 16.1087 10.9275C16.1087 9.89131 16.9565 8.94928 18.0869 8.94928Z" fill="#FCBA59"/>
</svg>
