<svg width="25" height="28" viewBox="0 0 25 28" fill="none" xmlns="http://www.w3.org/2000/svg">
<path d="M20.5188 14.7088V10.4572C20.5393 7.21578 18.3454 5.06585 16.4603 4.20976C15.9203 3.96442 15.3636 3.77533 14.7979 3.63493V3.36359C14.7979 2.06031 13.7307 1 12.419 1C11.1072 1 10.04 2.06031 10.04 3.36359V3.67606C9.53045 3.81268 9.02944 3.99089 8.54319 4.21401C6.46018 5.16796 4.34957 7.46726 4.33054 10.4544V14.7088C4.33054 17.7286 3.25716 20.3195 1.14037 22.4099C1.01428 22.5347 0.968608 22.7186 1.0219 22.8873C1.07519 23.0561 1.21935 23.1809 1.39492 23.2112L5.91064 23.9859C6.75184 24.1301 7.52642 24.2483 8.26342 24.3457C9.09368 25.9624 10.7242 27 12.5056 27C14.2874 27 15.9184 25.9619 16.7482 24.3443C17.4823 24.2474 18.2531 24.1297 19.0896 23.9859L23.6048 23.2112C23.7804 23.1814 23.9241 23.0561 23.9778 22.8873C24.0316 22.7191 23.9859 22.5347 23.8593 22.4099C21.6431 20.2207 20.5188 17.6298 20.5188 14.7088ZM10.9916 3.36359C10.9916 2.58172 11.632 1.94544 12.419 1.94544C13.2059 1.94544 13.8463 2.58172 13.8463 3.36359V3.44963C12.8981 3.31443 11.936 3.3201 10.9916 3.47185V3.36359ZM12.506 26.0541C11.3013 26.0541 10.1756 25.4594 9.4529 24.487C10.5163 24.5958 11.5088 24.6506 12.5008 24.6506C13.4966 24.6506 14.4925 24.5958 15.5601 24.4856C14.8369 25.4589 13.7107 26.0541 12.506 26.0541ZM18.9283 23.0537C18.0152 23.2102 17.1783 23.3374 16.3875 23.4376C16.3866 23.4376 16.3856 23.4376 16.3842 23.4376C16.0355 23.4816 15.6967 23.5198 15.3651 23.5529C15.3622 23.5529 15.3598 23.5534 15.357 23.5534C15.0529 23.5837 14.7561 23.6082 14.462 23.629C14.4068 23.6328 14.3516 23.6366 14.2969 23.6399C14.0424 23.6565 13.7907 23.6697 13.5404 23.6792C13.4895 23.681 13.4381 23.6839 13.3872 23.6853C12.7953 23.7052 12.2115 23.7052 11.6201 23.6858C11.5673 23.6839 11.514 23.681 11.4612 23.6792C11.2152 23.6692 10.9673 23.6569 10.7166 23.6404C10.6571 23.6366 10.5976 23.6328 10.5377 23.6286C10.2527 23.6082 9.96437 23.5846 9.66986 23.5553C9.65891 23.5544 9.64845 23.5534 9.6375 23.5525C9.30826 23.5198 8.97235 23.4816 8.62693 23.4381C8.6255 23.4381 8.62407 23.4381 8.62264 23.4381C7.82903 23.3383 6.98878 23.2102 6.07193 23.0533L2.42738 22.4283C4.32245 20.2756 5.28212 17.6832 5.28212 14.7088V10.4572C5.2983 7.88798 7.13199 5.90162 8.94142 5.07247C9.47954 4.82618 10.0376 4.6423 10.6053 4.51325C10.61 4.5123 10.6153 4.51277 10.62 4.51183C11.7928 4.24994 13.0404 4.23812 14.2265 4.47968C14.2327 4.4811 14.2389 4.47826 14.2451 4.47921C14.8655 4.60779 15.4764 4.80255 16.065 5.06964C17.8201 5.86711 19.5839 7.84024 19.5672 10.4548V14.7093C19.5672 17.5612 20.6021 20.2132 22.5709 22.4293L18.9283 23.0537Z" fill="#BABABA" stroke="#BABABA"/>
<path d="M15.2583 7.82091C13.8028 7.16801 12.0206 7.16728 10.5749 7.82165C9.75042 8.19474 8.35203 9.28635 8.34076 11.0121C8.33964 11.2156 8.50641 11.3815 8.71412 11.3829C8.71487 11.3829 8.71562 11.3829 8.71637 11.3829C8.92258 11.3829 9.09085 11.2196 9.09198 11.0165C9.10062 9.66091 10.2259 8.7916 10.8893 8.49114C12.14 7.92451 13.686 7.92598 14.9454 8.49114C15.1344 8.57593 15.3571 8.49446 15.4435 8.30939C15.5299 8.12395 15.4465 7.90534 15.2583 7.82091Z" fill="#BABABA" stroke="#BABABA"/>
</svg>
