<svg width="30" height="30" viewBox="0 0 30 30" fill="none" xmlns="http://www.w3.org/2000/svg">
<path d="M28.846 13.7764L14.9998 1L1.1541 13.7764C0.959059 13.9568 0.947472 14.2605 1.12899 14.4548C1.30955 14.6486 1.6161 14.6596 1.81114 14.4797L3.41344 13.0012V29H11.1377H18.8619H26.5861V13.0007L28.1884 14.4792C28.2811 14.5651 28.3994 14.6073 28.5172 14.6073C28.6471 14.6073 28.776 14.556 28.8706 14.4543C29.0526 14.2605 29.041 13.9568 28.846 13.7764ZM12.1032 28.0405V20.3647C12.1032 18.7772 13.4023 17.4863 14.9998 17.4863C16.5973 17.4863 17.8964 18.7772 17.8964 20.3647V28.0405H12.1032ZM25.6206 28.0405H18.8619V20.3647C18.8619 18.2486 17.1293 16.5268 14.9998 16.5268C12.8703 16.5268 11.1377 18.2486 11.1377 20.3647V28.0405H4.37897V12.1098L14.9998 2.30921L25.6206 12.1098V28.0405Z" fill="#BABABA" stroke="#BABABA"/>
</svg>
