<svg width="28" height="26" viewBox="0 0 28 26" fill="none" xmlns="http://www.w3.org/2000/svg">
<path d="M26.9572 8.15656C26.5777 4.00937 23.621 1.0005 19.9207 1.0005C17.4555 1.0005 15.1984 2.31753 13.9283 4.42836C12.6697 2.29023 10.5051 1 8.07938 1C4.37962 1 1.42241 4.00887 1.04338 8.15607C1.01338 8.33925 0.890374 9.30332 1.2644 10.8755C1.80344 13.1432 3.04853 15.2059 4.86415 16.8392L13.9223 25L23.1359 16.8397C24.9516 15.2059 26.1967 13.1437 26.7357 10.8755C27.1097 9.30382 26.9867 8.33975 26.9572 8.15656ZM25.7621 10.6482C25.2701 12.7193 24.1295 14.6062 22.4669 16.1015L13.9283 23.6646L5.5362 16.1034C3.87058 14.6052 2.7305 12.7188 2.23797 10.6477C1.88394 9.15985 2.02945 8.31939 2.02995 8.31393L2.03745 8.26379C2.36248 4.63041 4.90316 1.99286 8.07938 1.99286C10.423 1.99286 12.4862 3.42259 13.4653 5.72355L13.9258 6.80726L14.3863 5.72355C15.3499 3.45783 17.522 1.99336 19.9212 1.99336C23.0969 1.99336 25.6381 4.6309 25.9696 8.31145C25.9706 8.31939 26.1161 9.16035 25.7621 10.6482Z" fill="#85CAC6" stroke="#85CAC6"/>
<path d="M8.99993 4.01727C6.24273 4.01727 3.99957 6.24427 3.99957 8.98159C3.99957 9.25612 4.22309 9.47802 4.49961 9.47802C4.77613 9.47802 4.99964 9.25612 4.99964 8.98159C4.99964 6.79183 6.79427 5.01014 8.99993 5.01014C9.27644 5.01014 9.49996 4.78823 9.49996 4.51371C9.49996 4.23918 9.27594 4.01727 8.99993 4.01727Z" fill="#85CAC6" stroke="#85CAC6"/>
</svg>
