<svg width="42" height="51" viewBox="0 0 42 51" fill="none" xmlns="http://www.w3.org/2000/svg">
<path d="M21 18.1713C19.4 18.1713 18.1 19.4764 18.1 21.0827C18.1 22.689 19.4 23.9941 21 23.9941C22.6 23.9941 23.9 22.689 23.9 21.0827C23.9 19.4764 22.6 18.1713 21 18.1713Z" fill="#D7EBEA"/>
<path d="M21 0C15.2 0 10 2.40945 6.2 6.22441C2.4 10.0394 0 15.2598 0 21.0827C0 25.8012 1.5 30.1181 4.2 33.7323C6.7 37.1457 10.4 39.8563 14.6 41.1614L18.8 49.5945C19 49.9961 19.3 50.2972 19.7 50.5984C20.1 50.7992 20.5 51 21 51C21.5 51 21.9 50.8996 22.3 50.5984C22.7 50.3976 23 49.9961 23.2 49.5945L27.4 41.1614C31.7 39.7559 35.3 37.1457 37.8 33.7323C40.5 30.1181 42 25.8012 42 21.0827C42 15.2598 39.6 10.0394 35.8 6.22441C32 2.40945 26.8 0 21 0Z" fill="#6B6B6B"/>
<path d="M11.2 32.3268H22.5C23 32.3268 23.3 31.9252 23.3 31.5236V14.0551C23.3 13.5531 22.9 13.252 22.5 13.252H11.2C10.7 13.252 10.4 13.6535 10.4 14.0551V31.4232C10.3 31.9252 10.7 32.3268 11.2 32.3268Z" fill="white"/>
<path d="M22.3 14.2559H11.3V31.3228H22.3V14.2559Z" fill="#6B6B6B"/>
<path d="M16.5 32.3268H28.8C29.3 32.3268 29.6 31.9252 29.6 31.5236V9.03542C29.6 8.53345 29.2 8.23227 28.8 8.23227H16.5C16 8.23227 15.7 8.63384 15.7 9.03542V31.4232C15.7 31.9252 16.1 32.3268 16.5 32.3268Z" fill="white"/>
<path d="M28.7 9.23621H16.7V31.3228H28.7V9.23621Z" fill="#6B6B6B"/>
<path d="M26.6726 22.2993V20.2915H24.6726V22.2993H26.6726Z" fill="white"/>
<path d="M23.6726 22.2993V20.2915H21.6726V22.2993H23.6726Z" fill="white"/>
<path d="M20.6726 22.2993V20.2915H18.6726V22.2993H20.6726Z" fill="white"/>
<path d="M26.6726 25.3112V23.3033H24.6726V25.3112H26.6726Z" fill="white"/>
<path d="M23.6726 25.3112V23.3033H21.6726V25.3112H23.6726Z" fill="white"/>
<path d="M20.6726 25.3112V23.3033H18.6726V25.3112H20.6726Z" fill="white"/>
<path d="M23.2 12.248H22.2V17.2677H23.2V12.248Z" fill="white"/>
<path d="M25.2 14.2559H20.2V15.2598H25.2V14.2559Z" fill="white"/>
<path d="M25.2 26.8051H20.2V31.8248H25.2V26.8051Z" fill="#6B6B6B"/>
<path d="M24.7 27.3071V31.3228H20.7V27.3071H24.7ZM25.7 26.3031H24.7H20.7H19.7V27.3071V31.3228V32.3268H20.7H24.7H25.7V31.3228V27.3071V26.3031Z" fill="white"/>
<path d="M14.3119 22.2599V20.252H12.3119V22.2599H14.3119Z" fill="white"/>
<path d="M14.3119 25.2717V23.2638H12.3119V25.2717H14.3119Z" fill="white"/>
</svg>
