<svg width="67" height="67" viewBox="0 0 67 67" fill="none" xmlns="http://www.w3.org/2000/svg">
<path d="M9.8 39.6L0 35.3C0.1 37.8 0.6 40.2 1.2 42.6L12.4 43C11.3 42.2 10.4 41 9.8 39.6Z" fill="#A0DADE"/>
<path d="M63 17.6H40.1C39.3 17.6 38.6 18.2 38.6 19.1V23H36V19.1C36 16.9 37.8 15.1 40 15.1H44.5V10.2L42.7 10.4C42 10.5 41.4 10 41.4 9.3C41.4 8.6 42 8.1 42.6 8.2L45.4 8.5C45.5 8.5 45.6 8.5 45.7 8.5L48.5 8.2C49.2 8.1 49.8 8.6 49.8 9.3C49.8 10 49.2 10.5 48.6 10.4L46.8 10.2V15.1H61.4C55.5 6 45.2 0 33.5 0C18.6 0 5.99998 9.7 1.59998 23.2L14.6 30C15.7 29.7 17.6 29.6 17.8 29.6H17.9C18 29.6 18 29.6 18.1 29.6L30.3 30.9C31.4 31 32.1 32 32 33.1C31.9 34.1 31.1 34.8 30 34.8C29.9 34.8 29.9 34.8 29.9 34.8L26.4 34.6L30.1 36.5C30.3 36.5 30.4 36.6 30.6 36.6C31.7 34.5 33.8 33.1 36.3 33.1C39 33.1 41.3 34.8 42.3 37.1C42.9 36.9 43.6 36.8 44.3 36.8C47.5 36.8 50.2 39.4 50.2 42.7C50.2 43.4 50.1 44 49.9 44.7C50.3 45.7 50.6 46.8 50.6 48.1C50.6 52.5 47 56.1 42.6 56.1C41.6 56.1 40.7 55.9 39.8 55.6H38.6C37.7 57.4 36 58.5 33.9 58.5C32 58.5 30.3 57.5 29.4 56C29 56 28.5 55.9 28.1 55.8H27.8C27.6 55.9 27.4 55.9 27.2 55.9H26.1H25.7H25.6C25.5 55.9 25.5 55.9 25.4 55.9H22.3C20.5 55.8 18.7 55.1 17.3 53.8L7.19998 54.3C13.3 62 22.8 67 33.5 67C52 67 67 52 67 33.5C67 27.8 65.6 22.4 63 17.6ZM37.4 30.4C36.2 30.4 35.3 29.5 35.3 28.3C35.3 27.1 37.4 24.1 37.4 24.1C37.4 24.1 39.5 27.2 39.5 28.3C39.5 29.5 38.6 30.4 37.4 30.4Z" fill="#A0DADE"/>
<path d="M13.9 43C14 43 14.1 43.1 14.1 43.1L17.7 43.2C18.6 42.5 20.4 41.4 20.5 41.4L23.6 40.3C24.2 38.3 25.9 36.8 28 36.5L22.5 33.7L29.9 34.1H30C30.6 34.1 31.1 33.7 31.1 33.1C31.2 32.5 30.7 31.9 30.1 31.9L17.9 30.6C17.8 30.6 17.8 30.6 17.8 30.6C17.5 30.6 15.3 30.8 14.5 31.1L1.4 24C0.5 27 0 30.2 0 33.5C0 33.8 0 34.1 0 34.5L10.4 39C11 40.7 12.2 42.2 13.9 43Z" fill="#A67C52"/>
<path d="M17.8 30.4C17.9 30.4 17.9 30.4 17.9 30.4L30.1 31.7C30.7 31.8 31.2 32.3 31.1 32.9C31 33.5 30.5 33.9 30 33.9H29.9L22.5 33.5L28 36.3C28.2 36.3 28.5 36.2 28.7 36.2C29.2 36.2 29.6 36.3 30 36.4L26.3 34.5L29.8 34.7C29.9 34.7 29.9 34.7 29.9 34.7C30.9 34.7 31.7 34 31.9 33C32 31.9 31.2 30.9 30.2 30.8L18 29.5C17.9 29.5 17.9 29.5 17.8 29.5H17.7C17.4 29.5 15.6 29.7 14.5 29.9L1.59999 23.2C1.49999 23.5 1.39999 23.8 1.29999 24L14.4 30.9C15.3 30.6 17.5 30.4 17.8 30.4Z" fill="#36AFC1"/>
<path d="M29.5 56.1C30.4 57.6 32.1 58.6 34 58.6C36.1 58.6 37.8 57.4 38.7 55.7L28.2 55.9C28.6 56 29.1 56.1 29.5 56.1Z" fill="#FEEFD8"/>
<path d="M28.1 36.4C26 36.7 24.3 38.2 23.7 40.2L32.1 37.2C32.3 37.1 32.5 37.1 32.8 37.1C33.6 37.1 34.4 37.6 34.6 38.4C34.9 39.3 34.5 40.5 33.5 40.9L30.3 42.2L41.6 42.5C42.6 42.5 43.3 43.3 43.3 44.3C43.3 44.9 43 45.4 42.5 45.7H43.3C44.3 45.7 45 46.5 45 47.5C45 48.3 44.4 49 43.6 49.1C44.2 49.4 44.6 50 44.6 50.7C44.5 51.6 43.8 52.4 42.9 52.4L40.7 52.5C41.1 52.8 41.4 53.3 41.4 54C41.3 54.9 40.6 55.7 39.7 55.7C40.6 56 41.5 56.2 42.5 56.2C46.9 56.2 50.5 52.6 50.5 48.2C50.5 47 50.2 45.9 49.8 44.8C50 44.1 50.1 43.5 50.1 42.8C50.1 39.5 47.4 36.9 44.2 36.9C43.5 36.9 42.9 37 42.2 37.2C41.3 34.9 39 33.2 36.2 33.2C33.7 33.2 31.6 34.6 30.5 36.7C30.3 36.6 30.2 36.6 30 36.6C29.6 36.5 29.1 36.4 28.7 36.4C28.5 36.3 28.3 36.4 28.1 36.4Z" fill="#FEEFD8"/>
<path d="M22.8 55.2C23 55.2 23.2 55.2 23.4 55.2H25.7C25.8 55.2 25.8 55.2 25.9 55.2H26.3H27.4C27.6 55.2 27.8 55.1 28 55.1L39.9 54.8C40.4 54.8 40.8 54.4 40.8 53.9C40.8 53.4 40.4 53 39.9 53L31.3 52.9C31.5 52.6 31.6 52.2 31.6 51.9L43 51.7C43.5 51.7 43.9 51.3 43.9 50.8C43.9 50.3 43.5 49.9 43 49.9L31.7 49.7V48.6L43.5 48.4C44 48.4 44.4 48 44.4 47.5C44.4 47 44 46.6 43.5 46.6L31.7 46.4C31.6 46.1 31.5 45.7 31.4 45.5L41.8 45.3C42.3 45.3 42.7 44.9 42.7 44.4C42.7 43.9 42.3 43.5 41.8 43.5L26.5 43L33.3 40.1C33.9 39.9 34.1 39.3 33.9 38.7C33.7 38.3 33.3 38 32.8 38C32.7 38 32.5 38 32.4 38.1L20.9 42.2C20.9 42.2 18.7 43.4 18.1 44.1L1.5 43.5C2.6 47.1 4.4 50.5 6.6 53.5L17.9 53.1C19.1 54.3 20.9 55.2 22.8 55.2Z" fill="#A67C52"/>
<path d="M22.5 55.9H25.6C25.7 55.9 25.7 55.9 25.8 55.9H25.9H26.3H27.4C27.6 55.9 27.8 55.9 28 55.8H28.3L38.8 55.6H40C40.9 55.6 41.6 54.8 41.7 53.9C41.7 53.3 41.4 52.8 41 52.4L43.2 52.3C44.1 52.3 44.9 51.5 44.9 50.6C44.9 49.9 44.5 49.3 43.9 49C44.7 48.9 45.3 48.2 45.3 47.4C45.3 46.5 44.6 45.6 43.6 45.6H42.8C43.2 45.3 43.6 44.8 43.6 44.2C43.6 43.3 42.9 42.4 41.9 42.4L30.6 42.1L33.8 40.8C34.7 40.4 35.2 39.3 34.9 38.3C34.6 37.5 33.9 37 33.1 37C32.9 37 32.7 37.1 32.4 37.1L24 40.1L20.9 41.2C20.7 41.3 18.9 42.3 18.1 43L14.5 42.9C14 43 14 43 13.9 43C12.2 42.2 11 40.7 10.4 39L0 34.5C0 34.8 0 35.1 0 35.4L9.8 39.7C10.3 41.1 11.2 42.2 12.4 43.1L1.3 42.6C1.4 42.9 1.5 43.2 1.5 43.4L18.1 44C18.7 43.3 20.9 42.1 20.9 42.1L32.4 38C32.5 37.9 32.7 37.9 32.8 37.9C33.2 37.9 33.7 38.2 33.9 38.6C34.1 39.2 33.8 39.8 33.3 40L26.5 43L41.7 43.3C42.2 43.3 42.6 43.7 42.6 44.2C42.6 44.7 42.2 45.1 41.7 45.1L31.3 45.3C31.5 45.6 31.6 45.9 31.6 46.2L43.4 46.4C43.9 46.4 44.3 46.8 44.3 47.3C44.3 47.8 43.9 48.2 43.4 48.2L31.6 48.4V49.5L43 49.9C43.5 49.9 43.9 50.3 43.9 50.8C43.9 51.3 43.5 51.7 43 51.7L31.6 51.9C31.5 52.2 31.4 52.6 31.3 52.9L39.9 53C40.4 53 40.8 53.4 40.8 53.9C40.8 54.4 40.4 54.8 39.9 54.8L28 55.1C27.8 55.1 27.6 55.2 27.4 55.2H26.3H25.9C25.8 55.2 25.8 55.2 25.7 55.2H23.4C23.2 55.2 23 55.2 22.8 55.2C20.9 55.2 19.2 54.4 17.9 53.1L6.6 53.5C6.8 53.7 7 54 7.2 54.3L17.6 53.9C18.9 55.2 20.7 55.9 22.5 55.9Z" fill="#36AFC1"/>
<path d="M35.3 28.3C35.3 29.5 36.2 30.4 37.4 30.4C38.6 30.4 39.5 29.5 39.5 28.3C39.5 27.1 37.4 24.1 37.4 24.1C37.4 24.1 35.3 27.1 35.3 28.3Z" fill="#FEEFD8"/>
<path d="M46.8 10.2L48.6 10.4C49.2 10.5 49.8 10 49.8 9.3C49.8 8.6 49.2 8.1 48.5 8.2L45.7 8.5C45.6 8.5 45.5 8.5 45.4 8.5L42.6 8.2C42 8.1 41.4 8.6 41.4 9.3C41.4 10 42 10.5 42.7 10.4L44.5 10.2V15.1H40C37.8 15.1 36 16.9 36 19.1V23H38.6V19.1C38.6 18.3 39.3 17.6 40.1 17.6H63C62.5 16.7 62 15.9 61.5 15H46.8V10.2Z" fill="#36AFC1"/>
</svg>
