<svg width="67" height="67" viewBox="0 0 67 67" fill="none" xmlns="http://www.w3.org/2000/svg">
<path d="M33.5 67C52.0015 67 67 52.0015 67 33.5C67 14.9985 52.0015 0 33.5 0C14.9985 0 0 14.9985 0 33.5C0 52.0015 14.9985 67 33.5 67Z" fill="#A0DADE"/>
<path d="M46.4999 19H20.4999C18.7999 19 17.3999 20.4 17.3999 22.1V51.5C17.3999 53.2 18.7999 54.6 20.4999 54.6H46.4999C48.1999 54.6 49.5999 53.2 49.5999 51.5V22.1C49.5999 20.4 48.1999 19 46.4999 19Z" fill="#D7EBEA"/>
<path d="M20.4999 51.7C20.3999 51.7 20.3999 51.6 20.3999 51.6V22.1C20.3999 22.1 20.3999 22 20.4999 22H46.4999C46.5999 22 46.5999 22.1 46.5999 22.1V51.5C46.5999 51.6 46.4999 51.6 46.4999 51.6L20.4999 51.7Z" fill="#F8FCFF"/>
<path d="M41.8 16.1H37.2C37.2 14 35.5 12.3 33.4 12.3C31.3 12.3 29.6 14 29.6 16.1H25C24.3 16.1 23.7 16.7 23.7 17.4V22.8C23.7 23.5 24.3 24.1 25 24.1H41.7C42.4 24.1 43 23.5 43 22.8V17.4C43.1 16.7 42.5 16.1 41.8 16.1Z" fill="#FEEFD8"/>
<path d="M33.5 17.2C34.2179 17.2 34.8 16.618 34.8 15.9C34.8 15.1821 34.2179 14.6 33.5 14.6C32.782 14.6 32.2 15.1821 32.2 15.9C32.2 16.618 32.782 17.2 33.5 17.2Z" fill="#E3E3E3"/>
<path d="M37.0999 29.5H34.7999V27.2H32.1999V29.5H29.8999V32.2H32.1999V34.4H34.7999V32.2H37.0999V29.5Z" fill="#D7EBEA"/>
<path d="M33.5 17.9C34.6 17.9 35.5 17 35.5 15.9C35.5 14.8 34.6 13.9 33.5 13.9C32.4 13.9 31.5 14.8 31.5 15.9C31.5 17 32.4 17.9 33.5 17.9ZM33.5 15.2C33.9 15.2 34.2 15.5 34.2 15.9C34.2 16.3 33.9 16.6 33.5 16.6C33.1 16.6 32.8 16.3 32.8 15.9C32.8 15.5 33.1 15.2 33.5 15.2Z" fill="#36AFC1"/>
<path d="M40.4999 37.4H26.4999C26.1999 37.4 25.8999 37.7 25.8999 38C25.8999 38.3 26.1999 38.6 26.4999 38.6H40.5999C40.8999 38.6 41.1999 38.3 41.1999 38C41.0999 37.6 40.8999 37.4 40.4999 37.4Z" fill="#36AFC1"/>
<path d="M40.4999 41.2H26.4999C26.1999 41.2 25.8999 41.5 25.8999 41.8C25.8999 42.1 26.1999 42.4 26.4999 42.4H40.5999C40.8999 42.4 41.1999 42.1 41.1999 41.8C41.0999 41.5 40.8999 41.2 40.4999 41.2Z" fill="#36AFC1"/>
<path d="M40.4999 45.1H26.4999C26.1999 45.1 25.8999 45.4 25.8999 45.7C25.8999 46 26.1999 46.3 26.4999 46.3H40.5999C40.8999 46.3 41.1999 46 41.1999 45.7C41.0999 45.3 40.8999 45.1 40.4999 45.1Z" fill="#36AFC1"/>
<path d="M29.8999 32.8H31.4999V34.4C31.4999 34.7 31.7999 35 32.0999 35H34.7999C35.0999 35 35.3999 34.7 35.3999 34.4V32.8H36.9999C37.2999 32.8 37.5999 32.5 37.5999 32.2V29.5C37.5999 29.2 37.2999 28.9 36.9999 28.9H35.3999V27.3C35.3999 27 35.0999 26.7 34.7999 26.7H32.0999C31.7999 26.7 31.4999 27 31.4999 27.3V28.9H29.8999C29.5999 28.9 29.2999 29.2 29.2999 29.5V32.2C29.2999 32.6 29.4999 32.8 29.8999 32.8ZM30.4999 30.1H32.0999C32.3999 30.1 32.6999 29.8 32.6999 29.5V27.9H34.0999V29.5C34.0999 29.8 34.3999 30.1 34.6999 30.1H36.2999V31.5H34.7999C34.4999 31.5 34.1999 31.8 34.1999 32.1V33.7H32.7999V32.1C32.7999 31.8 32.4999 31.5 32.1999 31.5H30.4999V30.1Z" fill="#36AFC1"/>
<path d="M41.8 15.5H37.8C37.6 13.3 35.7 11.7 33.5 11.7C31.3 11.7 29.4 13.3 29.1 15.5H25.1C24 15.5 23.2 16.3 23.2 17.4V18.4H20.4C18.3 18.4 16.7 20.1 16.7 22.1V51.5C16.7 53.6 18.4 55.2 20.4 55.2H23.5C23.8 55.2 24.1 54.9 24.1 54.6C24.1 54.3 23.9 54 23.6 54H20.5C19.2 54 18 52.9 18 51.5V22.1C18 20.8 19.1 19.6 20.5 19.6H23.2V21.3H20.5C20.1 21.3 19.7 21.6 19.7 22.1V51.5C19.7 51.9 20 52.3 20.5 52.3H46.5C46.9 52.3 47.2999 52 47.2999 51.5V22.1C47.2999 21.7 47 21.3 46.5 21.3H43.8V19.6H46.5C47.8 19.6 49 20.7 49 22.1V51.5C49 52.8 47.9 54 46.5 54H26.1C25.8 54 25.5 54.3 25.5 54.6C25.5 54.9 25.8 55.2 26.1 55.2H46.5C48.6 55.2 50.2 53.5 50.2 51.5V22.1C50.2 20 48.5 18.4 46.5 18.4H43.8V17.4C43.8 16.4 42.9 15.5 41.8 15.5ZM46 22.6V51H21V22.6H23.2V22.7C23.2 23.8 24 24.6 25.1 24.6H37.5C37.8 24.6 38.1 24.3 38.1 24C38.1 23.7 37.8 23.4 37.5 23.4H25.2C24.9 23.4 24.5 23.1 24.5 22.7V17.3C24.5 17 24.8 16.6 25.2 16.6H29.8C30.1 16.6 30.4 16.3 30.4 16C30.4 14.3 31.8 13 33.5 13C35.2 13 36.6 14.4 36.6 16.1C36.6 16.4 36.9 16.7 37.2 16.7H41.8C42.1 16.7 42.5 17 42.5 17.4V22.8C42.5 23.1 42.2 23.5 41.8 23.5H40C39.7 23.4 39.4 23.7 39.4 24C39.4 24.3 39.7 24.6 40 24.6H41.8C42.9 24.6 43.7 23.8 43.7 22.7V22.6H46Z" fill="#36AFC1"/>
</svg>
