<svg width="67" height="67" viewBox="0 0 67 67" fill="none" xmlns="http://www.w3.org/2000/svg">
<path d="M33.5 67C52.0015 67 67 52.0015 67 33.5C67 14.9985 52.0015 0 33.5 0C14.9985 0 0 14.9985 0 33.5C0 52.0015 14.9985 67 33.5 67Z" fill="#A0DADE"/>
<path d="M42.0185 42.0738L36.322 42.2727C35.8223 42.2901 35.5364 42.7004 35.5574 43.3C35.5783 43.8996 35.992 44.2854 36.3918 44.2715L42.0883 44.0725C42.588 44.0551 42.8739 43.6449 42.8529 43.0452C42.832 42.4456 42.4183 42.0598 42.0185 42.0738Z" fill="#36AFC1"/>
<path d="M47.8914 35.4647L46.0319 30.9269L45.6201 19.1341C45.6027 18.6344 45.189 18.2486 44.6893 18.266L22.8026 19.0303C22.3029 19.0478 21.9171 19.4615 21.9346 19.9612L22.144 25.9575L19.2457 26.0587C18.746 26.0762 18.3602 26.4899 18.3777 26.9896L19.0303 45.6782C19.0827 47.1773 20.3238 48.3347 21.8229 48.2823L21.9228 48.2788C21.9228 48.2788 21.9228 48.2788 22.0228 48.2753L42.8101 47.5494C44.8089 47.4796 46.4485 45.7213 46.3787 43.7226L46.1484 37.1266L47.2337 36.6884C47.8264 36.4676 48.0088 35.9609 47.8914 35.4647ZM24.2817 44.194L20.7765 35.5111L42.4805 26.6482L45.9856 35.3312L24.2817 44.194ZM40.7326 25.3084L27.7405 25.7621L27.6777 23.9632L40.6698 23.5095L40.7326 25.3084ZM23.7649 20.7978L43.9526 20.0928L44.1689 26.2891L43.7308 25.2037C43.6239 25.0073 43.517 24.8109 43.3136 24.7179C43.1102 24.625 42.9103 24.632 42.614 24.7424L42.4176 24.8493L42.3409 22.6506C42.3234 22.1509 41.9097 21.7651 41.41 21.7826L26.7189 22.2956C26.2193 22.3131 25.8335 22.7268 25.8509 23.2265L25.9731 26.7243C25.9905 27.224 26.4042 27.6098 26.9039 27.5924L36.4981 27.2574L31.9602 29.1169L27.0632 29.2879C26.5635 29.3053 26.1777 29.719 26.1951 30.2187C26.2126 30.7184 26.6263 31.1042 27.126 31.0868L27.4258 31.0763L24.2697 32.3872L24.0812 26.9905L23.7649 20.7978ZM22.3032 27.653L22.4847 32.8498L20.5104 33.6192L20.301 27.6228L22.3032 27.653ZM20.9291 45.6119L20.7267 39.8154L22.9244 45.4421L22.9279 45.5421C22.9489 46.1417 22.4631 46.5589 21.9634 46.5764C21.3638 46.5973 20.9466 46.1116 20.9291 45.6119ZM44.7797 43.7784C44.8181 44.8777 43.95 45.8086 42.8507 45.847L24.4619 46.4891C24.5549 46.2858 24.5479 46.0859 24.6409 45.8825L27.797 44.5716L33.1937 44.3831C33.6934 44.3657 34.0792 43.9519 34.0618 43.4522C34.0443 42.9526 33.6306 42.5668 33.1309 42.5842L32.4313 42.6086L37.0692 40.7456L42.166 40.5677C42.6657 40.5502 43.0515 40.1365 43.0341 39.6368C43.0166 39.1371 42.6029 38.7513 42.1032 38.7688L41.6035 38.7862L44.5633 37.5822L44.7797 43.7784Z" fill="#36AFC1"/>
<path d="M24.2817 44.194L20.773 35.4111L42.4804 26.6482L45.9856 35.3312L24.2817 44.194Z" fill="white"/>
<path d="M27.5689 35.1738C27.462 34.9774 27.2551 34.7845 26.9588 34.8949L24.3953 35.985C24.099 36.0955 23.9061 36.3023 24.013 36.4987L25.8795 41.2364C25.9864 41.4328 26.2897 41.5223 26.5825 41.312C26.8789 41.2015 27.0718 40.9947 27.0613 40.6949L26.3953 38.817L27.4807 38.3788C27.6771 38.2719 27.7666 37.9686 27.6597 37.7722C27.5527 37.5758 27.3459 37.3829 27.1495 37.4898L26.0641 37.928L25.5191 36.6462L27.3935 35.8803C27.5899 35.7734 27.6793 35.4701 27.5689 35.1738Z" fill="#16222F"/>
<path d="M33.4701 37.9695L30.2289 33.9802C30.0185 33.6874 29.6188 33.7013 29.326 33.9117C28.9297 34.0256 28.6369 34.2359 28.7473 34.5323L29.2251 39.6187L29.2286 39.7186C29.339 40.015 29.8387 39.9975 30.135 39.8871C30.3314 39.7802 30.4278 39.6768 30.4208 39.4769L30.286 38.481L31.8641 37.8255L32.4916 38.6041C32.5951 38.7005 32.795 38.6935 32.9948 38.6866C33.2946 38.6761 33.5805 38.2659 33.4701 37.9695ZM30.1547 37.585L29.8745 35.2934L31.2365 37.0469L30.1547 37.585Z" fill="#16222F"/>
<path d="M38.001 35.9102L35.4397 34.1985L36.0694 32.1753C36.0659 32.0754 36.0625 31.9755 36.059 31.8755C35.9486 31.5792 35.4454 31.4967 35.149 31.6071C35.0491 31.6106 34.9527 31.714 34.9596 31.9139L34.3473 34.4368L33.5814 32.5624C33.4745 32.366 33.1747 32.3765 32.8784 32.4869C32.582 32.5973 32.2892 32.8076 32.3996 33.104L34.2661 37.8417C34.373 38.0381 34.6763 38.1276 34.9692 37.9172C35.3654 37.8033 35.5583 37.5965 35.5478 37.2967L35.0028 36.0149L35.1852 35.5082L37.2363 36.9375C37.4397 37.0305 37.5396 37.027 37.7395 37.02C38.0359 36.9096 38.3182 36.3994 38.2113 36.203C38.1044 36.0066 38.001 35.9102 38.001 35.9102Z" fill="#16222F"/>
<path d="M41.8358 33.9751L39.8614 34.7445L39.3163 33.4627L40.4052 33.1245C40.6016 33.0176 40.6911 32.7143 40.5841 32.5179C40.4772 32.3215 40.2704 32.1286 40.074 32.2356L38.9886 32.6737L38.4435 31.3919L40.4179 30.6226C40.6143 30.5157 40.7038 30.2123 40.5968 30.016C40.4899 29.8196 40.2796 29.5267 40.0832 29.6337L37.4197 30.7273C37.1199 30.7377 36.9305 31.0445 37.0374 31.2409L38.9039 35.9787C39.0108 36.1751 39.3141 36.2645 39.5105 36.1576L42.174 35.064C42.4703 34.9536 42.4598 34.6538 42.3494 34.3574C42.2425 34.1611 42.0356 33.9682 41.8358 33.9751Z" fill="#16222F"/>
</svg>
