<svg width="67" height="67" viewBox="0 0 67 67" fill="none" xmlns="http://www.w3.org/2000/svg">
<path d="M33.5 67C52.0015 67 67 52.0015 67 33.5C67 14.9985 52.0015 0 33.5 0C14.9985 0 0 14.9985 0 33.5C0 52.0015 14.9985 67 33.5 67Z" fill="#A0DADE"/>
<path d="M46.373 20.1162C44.973 20.2162 39.973 19.8162 37.673 20.4162C36.273 20.9162 34.973 23.6162 34.973 23.6162C34.973 23.6162 31.973 21.9162 30.973 25.4162C30.273 27.6162 31.173 28.9162 31.173 28.9162C31.173 28.9162 27.673 31.8162 26.573 32.8162C26.273 33.1162 25.673 33.5162 25.273 33.8162C25.273 33.9162 25.273 33.9162 25.173 33.9162V34.0162L21.373 40.8162C22.273 41.7162 23.173 42.5162 24.073 43.2162C24.873 43.7162 25.873 44.3162 27.073 45.0162C27.873 45.4162 28.673 45.9162 29.473 46.3162C30.473 46.7162 31.273 47.0162 31.873 47.2162L31.273 45.1162L33.973 39.1162L38.073 41.3162C38.973 41.6162 40.073 41.0162 40.373 40.1162V40.0162L41.473 38.4162L38.473 36.8162L38.873 36.4162C38.973 36.3162 40.173 35.1162 42.373 35.5162C42.773 35.6162 43.073 35.5162 43.173 35.4162L43.873 32.4162H45.673H45.773C45.873 32.5162 45.973 32.4162 46.073 32.3162C46.173 32.2162 46.273 32.1162 46.273 32.1162L45.373 25.8162L45.473 25.7162C46.173 23.6162 46.473 21.8162 46.373 20.1162Z" fill="#FEEFD8"/>
<path d="M41.473 11.9162C40.873 11.6162 40.173 11.2162 39.473 11.0162C40.073 11.3162 40.773 11.6162 41.473 11.9162Z" fill="#005063"/>
<path d="M22.5729 29.0162C22.6729 29.1162 22.6729 29.3162 22.7729 29.4162C22.2729 27.3162 21.8729 24.9162 21.8729 22.5162C21.6729 24.3162 21.8729 26.2162 22.5729 29.0162Z" fill="#36AFC1"/>
<path d="M24.073 33.7162L20.473 40.0162C20.573 39.9162 20.673 39.9162 20.673 39.9162C20.873 40.1162 21.073 40.3162 21.273 40.6162L25.073 33.8162V33.7162C25.073 33.6162 25.173 33.6162 25.173 33.6162C24.673 33.9162 24.273 34.2162 24.273 34.2162C24.273 34.2162 24.173 34.1162 24.073 33.7162Z" fill="#36AFC1"/>
<path d="M46.473 25.7162C47.273 23.6162 47.473 21.6162 47.173 19.7162C46.973 19.8162 46.773 19.9162 46.573 20.0162C46.473 20.0162 46.373 20.1162 46.273 20.1162C46.473 21.8162 46.173 23.6162 45.473 25.5162L45.373 25.6162L46.273 31.9162C46.273 32.0162 46.173 32.1162 46.073 32.1162C46.073 32.2162 45.973 32.2162 45.873 32.2162H45.773H43.973L43.273 35.2162C43.173 35.3162 42.873 35.3162 42.473 35.3162C40.273 34.9162 39.073 36.1162 38.973 36.2162L38.573 36.6162L41.573 38.2162L40.473 39.8162V39.9162C40.173 40.8162 39.173 41.4162 38.173 41.1162L34.073 38.9162L31.373 44.9162L31.973 47.0162C32.573 47.2162 32.973 47.3162 33.073 47.3162L32.473 45.0162L34.673 40.3162L37.973 42.0162H38.073C39.573 42.4162 41.073 41.7162 41.573 40.2162L43.173 37.8162L40.573 36.4162C40.973 36.2162 41.673 36.0162 42.573 36.2162C43.773 36.4162 44.273 35.9162 44.373 35.8162L44.473 35.7162L45.073 33.1162H45.973C46.373 33.2162 46.773 33.0162 47.173 32.8162C47.473 32.5162 47.673 32.1162 47.573 31.7162L46.473 25.7162Z" fill="#36AFC1"/>
<path d="M41.4729 11.9162C40.7729 11.6162 40.0729 11.3162 39.3729 11.0162C38.3729 10.6162 37.4729 10.2162 36.8729 10.1162C29.6729 7.91619 24.1729 12.1162 22.3729 18.3162C21.9729 19.6162 21.7729 21.1162 21.7729 22.5162C21.7729 25.0162 22.1729 27.4162 22.6729 29.4162C23.1729 31.4162 23.6729 32.9162 23.9729 33.6162C24.0729 33.9162 24.1729 34.2162 24.1729 34.2162C24.1729 34.2162 24.5729 33.9162 25.0729 33.6162C25.4729 33.3162 26.0729 32.9162 26.3729 32.6162C27.4729 31.7162 30.9729 28.7162 30.9729 28.7162C30.9729 28.7162 30.1729 27.5162 30.7729 25.2162C31.7729 21.7162 34.7729 23.4162 34.7729 23.4162C34.7729 23.4162 36.0729 20.7162 37.4729 20.2162C39.6729 19.5162 44.773 19.9162 46.173 19.9162C46.373 19.9162 46.4729 19.9162 46.4729 19.8162C46.6729 19.7162 46.8729 19.6162 47.0729 19.5162C49.2729 18.2162 49.2729 15.6162 49.2729 15.6162C49.2729 15.6162 45.173 13.7162 41.4729 11.9162Z" fill="#36AFC1"/>
<path d="M32.973 47.2162C32.873 47.2162 32.573 47.1162 31.873 46.9162C31.273 46.7162 30.373 46.5162 29.473 46.0162C28.773 45.6162 27.873 45.2162 27.073 44.7162C25.773 44.0162 24.873 43.4162 24.073 42.9162C23.173 42.2162 22.273 41.4162 21.373 40.5162C21.173 40.3162 20.973 40.1162 20.773 39.8162C20.773 39.8162 20.673 39.9162 20.573 39.9162C19.173 40.9162 10.373 46.2162 7.573 54.6162C13.673 62.1162 23.073 66.9162 33.473 66.9162C35.673 66.9162 37.873 66.7162 39.973 66.3162C39.173 57.5162 32.973 47.2162 32.973 47.2162Z" fill="#36AFC1"/>
<path d="M55.373 39.1162C55.473 39.8162 55.773 43.3162 55.373 44.6162C54.173 48.3162 52.273 49.9162 52.273 50.0162L51.973 50.2162L51.673 50.0162C50.873 49.5162 50.873 48.3162 51.073 47.7162C51.273 47.3162 51.973 45.7162 52.073 45.5162C52.273 44.8162 52.273 44.3162 52.073 44.0162C51.973 43.9162 51.973 43.8162 51.873 43.8162L49.173 49.0162C48.473 50.1162 48.273 51.5162 48.273 52.4162L48.573 56.5162L46.873 64.0162C48.773 63.2162 50.573 62.2162 52.373 61.0162L52.473 57.9162L57.473 45.2162L56.073 38.1162C55.573 38.4162 55.473 39.0162 55.373 39.1162Z" fill="#FEEFD8"/>
<path d="M56.473 37.1162C55.773 37.1162 55.173 37.5162 54.873 38.2162C54.573 38.6162 54.573 39.1162 54.573 39.1162V39.2162C54.673 40.3162 54.973 43.4162 54.673 44.4162C53.873 46.9162 52.673 48.4162 52.173 49.0162C52.073 48.7162 52.073 48.3162 52.173 48.1162C52.273 47.8162 52.873 46.6162 53.173 45.9162V45.8162C53.473 44.8162 53.473 44.0162 53.073 43.5162C52.673 42.9162 51.973 42.8162 51.873 42.8162L51.573 42.7162L48.573 48.6162C47.773 49.9162 47.473 51.5162 47.573 52.5162L47.773 56.5162L45.973 64.6162C46.373 64.4162 46.673 64.3162 47.073 64.2162L48.773 56.7162L48.473 52.6162C48.373 51.7162 48.673 50.3162 49.373 49.2162L52.073 44.0162C52.173 44.1162 52.273 44.1162 52.273 44.2162C52.473 44.5162 52.473 45.0162 52.273 45.7162C52.073 46.0162 51.373 47.5162 51.273 47.9162C51.073 48.6162 51.073 49.7162 51.873 50.2162H51.973L52.273 50.0162C52.373 49.9162 54.173 48.4162 55.373 44.6162C55.773 43.3162 55.473 39.7162 55.373 39.1162C55.473 38.9162 55.573 38.3162 56.073 38.0162L57.473 45.1162L52.473 57.8162L52.373 60.9162C52.673 60.7162 53.073 60.5162 53.273 60.2162L53.373 58.0162L58.373 45.2162L56.773 37.0162L56.473 37.1162Z" fill="#36AFC1"/>
<path d="M49.773 34.8162L45.573 35.3162C45.273 35.4162 45.073 35.6162 45.173 35.9162C45.273 36.2162 45.473 36.3162 45.673 36.3162H45.773L49.973 35.8162C50.273 35.7162 50.473 35.5162 50.373 35.2162C50.273 35.0162 49.973 34.8162 49.773 34.8162Z" fill="#F8AAA0"/>
<path d="M49.573 39.0162L46.073 37.7162C45.773 37.6162 45.473 37.8162 45.373 38.0162C45.273 38.3162 45.473 38.6162 45.673 38.7162L49.173 40.0162C49.273 40.0162 49.273 40.1162 49.373 40.1162C49.573 40.1162 49.773 40.0162 49.873 39.8162C49.973 39.4162 49.873 39.1162 49.573 39.0162Z" fill="#F8AAA0"/>
<path d="M44.473 39.7162C44.273 39.5162 43.873 39.5162 43.773 39.6162C43.573 39.8162 43.573 40.1162 43.673 40.3162L46.373 43.5162C46.473 43.6162 46.673 43.7162 46.773 43.7162C46.873 43.7162 46.973 43.6162 47.073 43.6162C47.273 43.4162 47.273 43.1162 47.173 42.9162L44.473 39.7162Z" fill="#F8AAA0"/>
<path d="M24 29C23.7 27.7 23.5 26.2 23.4 24.7C23.5 26 23.6 27.3 24 29Z" fill="#36AFC1"/>
<path d="M30.6 40.1C29.6 40.1 28.8 40.9 28.8 41.9C28.8 42.9 29.6 43.7 30.6 43.7C31.6 43.7 32.4001 42.9 32.4001 41.9C32.4001 41 31.6 40.1 30.6 40.1Z" fill="#F8AAA0"/>
<path d="M30.6 44.9C28.9 44.9 27.6 43.6 27.6 41.9C27.6 40.2 28.9 38.9 30.6 38.9C32.3 38.9 33.5999 40.2 33.5999 41.9C33.5999 43.6 32.3 44.9 30.6 44.9ZM30.6 38.1C28.5 38.1 26.7 39.8 26.7 42C26.7 44.1 28.4 45.9 30.6 45.9C32.8 45.9 34.5 44.2 34.5 42C34.4 39.8 32.7 38.1 30.6 38.1Z" fill="#F8AAA0"/>
<path d="M30.6 47.1C27.8 47.1 25.5 44.8 25.5 42C25.5 39.2 27.8 36.9 30.6 36.9C33.4 36.9 35.7 39.2 35.7 42C35.7 44.8 33.4 47.1 30.6 47.1ZM30.6 36.1C27.4 36.1 24.7 38.7 24.7 42C24.7 45.3 27.3 47.9 30.6 47.9C33.9 47.9 36.5 45.3 36.5 42C36.5 38.7 33.8 36.1 30.6 36.1Z" fill="#F8AAA0"/>
<path d="M32.2 7.1C32.4 6.9 32.4 6.6 32.2 6.4C32 6.2 31.7 6.2 31.5 6.4L30.8 7.2C29.8 8.3 29.8 9.9 30.8 10.9C31.1 11.3 31.3 11.7 31.3 12.2C31.3 12.6 31.1 13 30.8 13.3L29.9 14.2C29.7 14.4 29.7 14.7 29.9 14.9C30 15.1 30.1 15.1 30.2 15.1C30.3 15.1 30.4 15 30.5 14.9L31.4 14C31.8 13.6 32.1 12.9 32.1 12.3C32.2 11.6 31.9 10.8 31.4 10.3C30.7 9.6 30.7 8.6 31.4 7.9L32.2 7.1Z" fill="white"/>
<path d="M35.8 7.09998C36 6.99998 36 6.59998 35.8 6.49998C35.6 6.29998 35.3 6.29998 35.1 6.49998L34.3 7.29998C33.3 8.39998 33.3 9.99998 34.3 11C34.8 11.5 34.9 12.2 34.6 12.8C34.5 13 34.4 13.2 34.3 13.3L33.4 14.2C33.2 14.4 33.2 14.7 33.4 14.9C33.5 15.1 33.7 15.1 33.8 15.1C33.9 15.1 34 15 34.1 14.9L35 14C35.3 13.7 35.4 13.4 35.6 13.1C35.9 12.2 35.8 11.1 35 10.3C34.3 9.59998 34.3 8.59998 35 7.89998L35.8 7.09998Z" fill="white"/>
<path d="M39.4 7.1C39.6 6.9 39.6 6.6 39.4 6.4C39.2 6.2 38.9 6.2 38.7 6.4L38 7.3C37 8.4 37 10 38 11C38.7 11.7 38.7 12.7 38 13.4L37.7 13.7L37 14.3C36.8 14.5 36.8 14.8 37 15C37.1 15.1 37.2 15.1 37.3 15.1C37.4 15.1 37.5 15 37.6 14.9L38.5 14C39.5 12.9 39.5 11.3 38.5 10.3C37.8 9.6 37.8 8.6 38.5 7.9L39.4 7.1Z" fill="white"/>
<path d="M36.6 25.4C36.6 26.1 37.2 26.6 37.8 26.6C38.4 26.6 39 26 39 25.4C39 24.8 37.8 23.1 37.8 23.1C37.8 23.1 36.6 24.7 36.6 25.4Z" fill="#F8AAA0"/>
<path d="M33.6 29.1C33.6 29.8 34.2 30.3 34.8 30.3C35.5 30.3 36 29.7 36 29.1C36 28.5 34.8 26.8 34.8 26.8C34.8 26.8 33.6 28.5 33.6 29.1Z" fill="#F8AAA0"/>
</svg>
