<svg width="128" height="128" viewBox="0 0 128 128" fill="none" xmlns="http://www.w3.org/2000/svg">
<path d="M64 128C99.3462 128 128 99.3462 128 64C128 28.6538 99.3462 0 64 0C28.6538 0 0 28.6538 0 64C0 99.3462 28.6538 128 64 128Z" fill="#D7EBEA"/>
<path d="M62.6998 107.3C61.1998 105 59.2998 106.1 57.7998 103.8C56.2998 101.5 58.0998 100.3 56.5998 97.9003C55.0998 95.6003 53.1998 96.7003 51.6998 94.4003C50.1998 92.1003 51.9998 90.9003 50.4998 88.5003C49.5998 87.1003 47.8998 84.1003 46.8998 83.7003L38.6998 87.7003L52.8998 110.1C54.2998 112.3 57.1998 112.9 59.2998 111.5L61.9998 109.7C62.9998 109.2 63.1998 108.1 62.6998 107.3Z" fill="#36AFC1"/>
<path d="M39.1998 91.2003L32.7998 95.2003C31.5998 96.0003 29.9998 95.6003 29.1998 94.4003L25.5998 88.5003C24.7998 87.3003 25.1998 85.7003 26.3998 84.9003L32.7998 80.9003C33.5998 80.4003 34.4998 80.7003 34.9998 81.4003L39.6998 89.0003C40.1998 89.7003 39.9998 90.7003 39.1998 91.2003Z" fill="#A0DADE"/>
<path d="M43.0998 70.2002L30.0998 78.2002C28.3998 79.3002 27.8998 81.5002 28.8998 83.2002L35.2998 93.6002C36.3998 95.3002 38.5998 95.8002 40.2998 94.8002L53.2998 86.8002L94.4998 77.8002L69.4998 37.3002L43.0998 70.2002Z" fill="#A0DADE"/>
<path d="M53.3998 86.8003L40.3998 94.8003C38.6998 95.9003 36.3998 95.3003 35.3998 93.6003L28.8998 83.2003C27.7998 81.5003 28.3998 79.2003 30.0998 78.2003L43.0998 70.2003L53.3998 86.8003Z" fill="#36AFC1"/>
<path d="M97.0998 80.7002L95.2998 81.8002C94.3998 82.4002 93.1998 82.1002 92.5998 81.2002L65.7998 37.7002C65.1998 36.8002 65.4998 35.5002 66.3998 35.0002L68.1998 33.9002C69.0998 33.3002 70.2998 33.6002 70.8998 34.5002L97.6998 78.0002C98.2998 78.9002 97.9998 80.1002 97.0998 80.7002Z" fill="#36AFC1"/>
<path d="M89.8998 53.0002C89.3998 53.0002 88.8998 52.7002 88.5998 52.3002C88.1998 51.6002 88.3998 50.7002 89.0998 50.3002L97.1998 45.3002C97.8998 44.9002 98.7998 45.1002 99.1998 45.8002C99.5998 46.5002 99.3998 47.4002 98.6998 47.8002L90.5998 52.8002C90.4998 53.0002 90.1998 53.0002 89.8998 53.0002Z" fill="#FDD089"/>
<path d="M108.5 65.2003L96.5998 64.0003C95.7998 63.9003 95.1998 63.2003 95.2998 62.4003C95.3998 61.6003 96.0998 61.0003 96.8998 61.1003L108.7 62.2003C109.5 62.3003 110.1 63.0003 110 63.8003C109.9 64.6003 109.3 65.2003 108.5 65.2003Z" fill="#FDD089"/>
<path d="M83.1998 42.0003C82.9998 42.0003 82.7998 42.0003 82.6998 41.9003C81.8998 41.6003 81.5998 40.7003 81.8998 40.0003L86.1998 28.9003C86.4998 28.1003 87.3998 27.8003 88.0998 28.1003C88.7998 28.4003 89.1998 29.3003 88.8998 30.0003L84.5998 41.1003C84.2998 41.7003 83.7998 42.0003 83.1998 42.0003Z" fill="#FDD089"/>
</svg>
