<svg width="67" height="67" viewBox="0 0 67 67" fill="none" xmlns="http://www.w3.org/2000/svg">
<path d="M33.5 67C52.0015 67 67 52.0015 67 33.5C67 14.9985 52.0015 0 33.5 0C14.9985 0 0 14.9985 0 33.5C0 52.0015 14.9985 67 33.5 67Z" fill="#A0DADE"/>
<path d="M46.373 20.1162C44.973 20.2162 39.973 19.8162 37.673 20.4162C36.273 20.9162 34.973 23.6162 34.973 23.6162C34.973 23.6162 31.973 21.9162 30.973 25.4162C30.273 27.6162 31.173 28.9162 31.173 28.9162C31.173 28.9162 27.673 31.8162 26.573 32.8162C26.273 33.1162 25.673 33.5162 25.273 33.8162C25.273 33.9162 25.273 33.9162 25.173 33.9162V34.0162L21.373 40.8162C22.273 41.7162 23.173 42.5162 24.073 43.2162C24.873 43.7162 25.873 44.3162 27.073 45.0162C27.873 45.4162 28.673 45.9162 29.473 46.3162C30.473 46.7162 31.273 47.0162 31.873 47.2162L31.273 45.1162L33.973 39.1162L38.073 41.3162C38.973 41.6162 40.073 41.0162 40.373 40.1162V40.0162L41.473 38.4162L38.473 36.8162L38.873 36.4162C38.973 36.3162 40.173 35.1162 42.373 35.5162C42.773 35.6162 43.073 35.5162 43.173 35.4162L43.873 32.4162H45.673H45.773C45.873 32.5162 45.973 32.4162 46.073 32.3162C46.173 32.2162 46.273 32.1162 46.273 32.1162L45.373 25.8162L45.473 25.7162C46.173 23.6162 46.473 21.8162 46.373 20.1162Z" fill="#FEEFD8"/>
<path d="M41.473 11.9162C40.873 11.6162 40.173 11.2162 39.473 11.0162C40.073 11.3162 40.773 11.6162 41.473 11.9162Z" fill="#005063"/>
<path d="M22.573 29.0162C22.673 29.1162 22.673 29.3162 22.773 29.4162C22.273 27.3162 21.873 24.9162 21.873 22.5162C21.673 24.3162 21.873 26.2162 22.573 29.0162Z" fill="#005063"/>
<path d="M24.073 33.7162L20.473 40.0162C20.573 39.9162 20.673 39.9162 20.673 39.9162C20.873 40.1162 21.073 40.3162 21.273 40.6162L25.073 33.8162V33.7162C25.073 33.6162 25.173 33.6162 25.173 33.6162C24.673 33.9162 24.273 34.2162 24.273 34.2162C24.273 34.2162 24.173 34.1162 24.073 33.7162Z" fill="#36AFC1"/>
<path d="M46.473 25.7162C47.273 23.6162 47.473 21.6162 47.173 19.7162C46.973 19.8162 46.773 19.9162 46.573 20.0162C46.473 20.0162 46.373 20.1162 46.273 20.1162C46.473 21.8162 46.173 23.6162 45.473 25.5162L45.373 25.6162L46.273 31.9162C46.273 32.0162 46.173 32.1162 46.073 32.1162C46.073 32.2162 45.973 32.2162 45.873 32.2162H45.773H43.973L43.273 35.2162C43.173 35.3162 42.873 35.3162 42.473 35.3162C40.273 34.9162 39.073 36.1162 38.973 36.2162L38.573 36.6162L41.573 38.2162L40.473 39.8162V39.9162C40.173 40.8162 39.173 41.4162 38.173 41.1162L34.073 38.9162L31.373 44.9162L31.973 47.0162C32.573 47.2162 32.973 47.3162 33.073 47.3162L32.473 45.0162L34.673 40.3162L38.073 42.0162H38.173C39.673 42.4162 41.173 41.7162 41.673 40.2162L43.273 37.8162L40.673 36.4162C41.073 36.2162 41.773 36.0162 42.673 36.2162C43.873 36.4162 44.373 35.9162 44.473 35.8162L44.573 35.7162L45.173 33.1162H46.073C46.473 33.2162 46.873 33.0162 47.273 32.8162C47.573 32.5162 47.773 32.1162 47.673 31.7162L46.473 25.7162Z" fill="#36AFC1"/>
<path d="M41.473 11.9162C40.773 11.6162 40.073 11.3162 39.373 11.0162C38.373 10.6162 37.473 10.2162 36.873 10.1162C29.673 7.91619 24.173 12.1162 22.373 18.3162C21.973 19.6162 21.773 21.1162 21.773 22.6162C21.773 25.1162 22.173 27.5162 22.673 29.5162C23.173 31.5162 23.673 33.0162 23.973 33.7162C24.073 34.0162 24.173 34.3162 24.173 34.3162C24.173 34.3162 24.573 34.0162 25.073 33.7162C25.473 33.4162 26.073 33.0162 26.373 32.7162C27.473 31.8162 30.973 28.8162 30.973 28.8162C30.973 28.8162 30.173 27.6162 30.773 25.3162C31.773 21.8162 34.773 23.5162 34.773 23.5162C34.773 23.5162 36.073 20.8162 37.473 20.3162C39.673 19.6162 44.773 20.0162 46.173 20.0162C46.373 20.0162 46.473 20.0162 46.473 19.9162C46.673 19.8162 46.873 19.7162 47.073 19.6162C49.273 18.3162 49.273 15.7162 49.273 15.7162C49.273 15.7162 45.173 13.7162 41.473 11.9162Z" fill="#36AFC1"/>
<path d="M32.973 47.2162C32.873 47.2162 32.573 47.1162 31.873 46.9162C31.273 46.7162 30.373 46.5162 29.473 46.0162C28.773 45.6162 27.873 45.2162 27.073 44.7162C25.773 44.0162 24.873 43.4162 24.073 42.9162C23.173 42.2162 22.273 41.4162 21.373 40.5162C21.173 40.3162 20.973 40.1162 20.773 39.8162C20.773 39.8162 20.673 39.9162 20.573 39.9162C19.173 40.9162 10.373 46.2162 7.573 54.6162C13.673 62.1162 23.073 66.9162 33.473 66.9162C35.673 66.9162 37.873 66.7162 39.973 66.3162C39.173 57.5162 32.973 47.2162 32.973 47.2162Z" fill="#36AFC1"/>
<path d="M55.373 39.1162C55.473 39.8162 55.773 43.3162 55.373 44.6162C54.173 48.3162 52.273 49.9162 52.273 50.0162L51.973 50.2162L51.673 50.0162C50.873 49.5162 50.873 48.3162 51.073 47.7162C51.273 47.3162 51.973 45.7162 52.073 45.5162C52.273 44.8162 52.273 44.3162 52.073 44.0162C51.973 43.9162 51.973 43.8162 51.873 43.8162L49.173 49.0162C48.473 50.1162 48.273 51.5162 48.273 52.4162L48.573 56.5162L46.873 64.0162C48.773 63.2162 50.573 62.2162 52.373 61.0162L52.473 57.9162L57.473 45.2162L56.073 38.1162C55.573 38.4162 55.473 39.0162 55.373 39.1162Z" fill="#FEEFD8"/>
<path d="M56.473 37.1162C55.773 37.1162 55.173 37.5162 54.873 38.2162C54.573 38.6162 54.573 39.1162 54.573 39.1162V39.2162C54.673 40.3162 54.973 43.4162 54.673 44.4162C53.873 46.9162 52.673 48.4162 52.173 49.0162C52.073 48.7162 52.073 48.3162 52.173 48.1162C52.273 47.8162 52.873 46.6162 53.173 45.9162V45.8162C53.473 44.8162 53.473 44.0162 53.073 43.5162C52.673 42.9162 51.973 42.8162 51.873 42.8162L51.573 42.7162L48.573 48.6162C47.773 49.9162 47.473 51.5162 47.573 52.5162L47.773 56.5162L45.973 64.6162C46.373 64.4162 46.673 64.3162 47.073 64.2162L48.773 56.7162L48.473 52.6162C48.373 51.7162 48.673 50.3162 49.373 49.2162L52.073 44.0162C52.173 44.1162 52.273 44.1162 52.273 44.2162C52.473 44.5162 52.473 45.0162 52.273 45.7162C52.073 46.0162 51.373 47.5162 51.273 47.9162C51.073 48.6162 51.073 49.7162 51.873 50.2162H51.973L52.273 50.0162C52.373 49.9162 54.173 48.4162 55.373 44.6162C55.773 43.3162 55.473 39.7162 55.373 39.1162C55.473 38.9162 55.573 38.3162 56.073 38.0162L57.473 45.1162L52.473 57.8162L52.373 60.9162C52.673 60.7162 53.073 60.5162 53.273 60.2162L53.373 58.0162L58.373 45.2162L56.773 37.0162L56.473 37.1162Z" fill="#36AFC1"/>
<path d="M49.773 34.8162L45.573 35.3162C45.273 35.4162 45.073 35.6162 45.173 35.9162C45.273 36.2162 45.473 36.3162 45.673 36.3162H45.773L49.973 35.8162C50.273 35.7162 50.473 35.5162 50.373 35.2162C50.273 35.0162 49.973 34.8162 49.773 34.8162Z" fill="#F8AAA0"/>
<path d="M49.573 39.0162L46.073 37.7162C45.773 37.6162 45.473 37.8162 45.373 38.0162C45.273 38.3162 45.473 38.6162 45.673 38.7162L49.173 40.0162C49.273 40.0162 49.273 40.1162 49.373 40.1162C49.573 40.1162 49.773 40.0162 49.873 39.8162C49.973 39.4162 49.873 39.1162 49.573 39.0162Z" fill="#F8AAA0"/>
<path d="M44.473 39.7162C44.273 39.5162 43.873 39.5162 43.773 39.6162C43.573 39.8162 43.573 40.1162 43.673 40.3162L46.373 43.5162C46.473 43.6162 46.673 43.7162 46.773 43.7162C46.873 43.7162 46.973 43.6162 47.073 43.6162C47.273 43.4162 47.273 43.1162 47.173 42.9162L44.473 39.7162Z" fill="#F8AAA0"/>
</svg>
