<svg width="67" height="67" viewBox="0 0 67 67" fill="none" xmlns="http://www.w3.org/2000/svg">
<path d="M33.5 67C52.0015 67 67 52.0015 67 33.5C67 14.9985 52.0015 0 33.5 0C14.9985 0 0 14.9985 0 33.5C0 52.0015 14.9985 67 33.5 67Z" fill="#A0DADE"/>
<path d="M23.1 38.4L21.2 37.5L19.3 41L24.3 43.7" fill="#DAE1E4"/>
<path d="M37.5 18.5L32.4 15.9L30.5 19.5L32.4 20.5" fill="#DAE1E4"/>
<path d="M46.5 35.3L53.3 33.2C54.1 33 54.8 33.9 54.2 34.5L50 39.9L49 41.8L47 48.3C46.8 49.1 45.7 49.1 45.4 48.3L43.3 41.5" fill="#D7EBEA"/>
<path d="M47.7 14.6C47.9 14.5 48.1 14.5 48.4 14.5C50.1 14.4 51.1 16.7 49.7 17.9L36.1 29.5L32.6 36.3L30.8 54.1C30.6 56 28.2 56.4 27.3 55C27.2 54.8 27.1 54.6 27 54.4L21 30.3L24.6 23.6L47.7 14.6Z" fill="#FEEFD8"/>
<path d="M47.7 14.6C47.9 14.5 48.1 14.5 48.4 14.5C48.9 15.2 49 16.3 48.1 17.1L34.4 28.7L30.9 35.5L29.2 53.3C29.1 54.4 28.2 55 27.3 55C27.2 54.8 27.1 54.6 27 54.4L21 30.3L24.6 23.6L47.7 14.6Z" fill="#D7EBEA"/>
<path d="M50.5 40.6L48.8 38.1C47.6 36.3 45.9 34.7 43.9 33.7L20.7 21.5C18.6 20.4 16.7 20.1 15.2 20.2C13 20.3 11.8 22.7 12.9 24.5C13.7 25.7 15 27.1 17.1 28.3L40.4 40.4C42.4 41.4 44.6 42 46.8 41.9L49.8 41.8" fill="white"/>
<path d="M47.3 40.8L50 41.4L49.8 41.7L46.8 41.8C44.6 41.9 42.4 41.4 40.4 40.3L17.1 28.2C15 27.1 13.7 25.7 12.9 24.4C12.3 23.5 12.3 22.4 12.8 21.7C12.6 22.1 12.8 22.6 13.5 23.3C14.5 24.2 16 25.3 18.1 26.4L41.4 38.5C43.3 39.5 45.4 40.3 47.3 40.8Z" fill="#FEEFD8"/>
<path d="M50.1 41.1L50 41.4L50.1 41.1Z" fill="#CCD1D3"/>
<path d="M49.5 15.7C49.7 16.1 49.8 16.8 49.2 17.3L36 28.6L26.2 23.6L48 15.2C48.7 15 49.2 15.4 49.5 15.7ZM31.5 19.2L32.7 16.9L35.7 18.5L32.4 19.8L31.5 19.2ZM48 42.5L46.3 48L46.2 48.1C46.1 48.1 46.1 48 46.1 48L44.3 42.4C45.1 42.5 46 42.6 46.8 42.6L48 42.5ZM47.8 35.7L53.4 33.9C53.4 33.9 53.5 33.8 53.6 34C53.7 34.1 53.6 34.2 53.6 34.2L50 38.7L49.3 37.7C48.9 36.9 48.4 36.3 47.8 35.7ZM20.3 40.8L21.5 38.5L22.5 39L23.3 42.4L20.3 40.8ZM47.5 13.9L37.5 17.8L32.7 15.3C32.4 15.1 31.9 15.2 31.8 15.6L29.9 19.1C29.7 19.4 29.8 19.9 30.1 20L30.6 20.3L24.5 22.7L20.9 20.8C18.9 19.8 16.9 19.3 14.9 19.4C13.7 19.5 12.6 20.1 12.1 21.2C11.5 22.3 11.6 23.6 12.2 24.6C13.3 26.3 14.8 27.7 16.7 28.7L20.3 30.6L21.9 37L21.4 36.7C21 36.5 20.6 36.6 20.4 37L18.6 40.6C18.4 40.9 18.5 41.4 18.9 41.5L23.7 44L26.3 54.4C26.7 55.9 28 56.5 29 56.4C29.8 56.3 30.7 55.9 31.1 55.1C31.3 54.8 31.4 54.5 31.4 54.1L31.7 50.4C31.8 50 31.5 49.7 31.1 49.6C30.7 49.5 30.4 49.8 30.3 50.2L30 53.9C29.9 54.7 29.3 55 28.9 55C28.4 55.1 27.8 54.8 27.6 54.1L22.1 31.6L31.8 36.6L30.7 47.3C30.6 47.7 30.9 48 31.3 48.1C31.7 48.2 32 47.9 32.1 47.5L33.1 37.4L40 41C40.8 41.4 41.7 41.8 42.6 42.1L44.6 48.5C44.8 49.2 45.4 49.6 46.1 49.6C46.7 49.6 47.2 49.3 47.4 48.8C47.5 48.7 47.5 48.6 47.5 48.5L49.3 42.5C49.6 42.4 49.9 42.3 50.1 42.1L52.9 43.6C53.2 43.8 53.7 43.7 53.8 43.3C54 43 53.9 42.5 53.5 42.4L50.7 40.9C50.7 40.6 50.7 40.3 50.5 40.1L54.6 35.1C54.7 35 54.7 34.9 54.8 34.9C55.1 34.4 55 33.8 54.7 33.3C54.4 32.6 53.7 32.4 53 32.6L46.6 34.6C45.9 34 45.1 33.5 44.3 33L41 31.3C40.7 31.1 40.2 31.2 40.1 31.6C39.9 31.9 40 32.4 40.4 32.6L43.6 34.3C45.4 35.2 47.1 36.7 48.2 38.5L49.1 39.9L45.5 38C45.2 37.8 44.7 37.9 44.6 38.3C44.5 38.7 44.5 39.1 44.9 39.2L48.5 41.1L46.8 41.2C44.7 41.3 42.6 40.8 40.7 39.8L17.5 27.6C15.8 26.7 14.4 25.5 13.5 24C13.1 23.4 13.1 22.6 13.4 22C13.7 21.3 14.3 20.9 15.1 20.9C16.8 20.8 18.6 21.2 20.3 22.1L37.4 31C37.7 31.2 38.2 31.1 38.3 30.7C38.5 30.4 38.4 29.9 38 29.8L37.2 29.4L50.1 18.4C50.4 18.1 50.6 17.8 50.8 17.6C51.2 16.8 51.1 15.8 50.7 15.1C50.1 14.1 48.9 13.4 47.5 13.9Z" fill="#36AFC1"/>
<path d="M17.8 26.6C17.9 27 18.3 27.2 18.7 27C19.1 26.8 19.3 26.5 19.1 26.1C18.8 25.3 19.3 24.4 20.1 24.1C20.3 24 20.4 23.9 20.5 23.8C20.6 23.6 20.6 23.5 20.6 23.2C20.4 22.9 20 22.7 19.7 22.8C18.1 23.3 17.3 25 17.8 26.6Z" fill="#36AFC1"/>
</svg>
