<svg width="67" height="67" viewBox="0 0 67 67" fill="none" xmlns="http://www.w3.org/2000/svg">
<path d="M33.5 67C52.0015 67 67 52.0015 67 33.5C67 14.9985 52.0015 0 33.5 0C14.9985 0 0 14.9985 0 33.5C0 52.0015 14.9985 67 33.5 67Z" fill="#FEEFD8"/>
<path d="M33.5 67C52.0015 67 67 52.0015 67 33.5C67 14.9985 52.0015 0 33.5 0C14.9985 0 0 14.9985 0 33.5C0 52.0015 14.9985 67 33.5 67Z" fill="#A0DADE"/>
<path d="M34.7001 13.1C34.1001 12.6 33.4001 12.2 32.6001 12.2C31.8001 12.2 31.1001 12.5 30.5001 13.1C29.6001 14 29.4001 15.6 29.9001 16.7C30.3001 17.5 30.6001 18.4 30.8001 19.2L31.4001 21.5C31.8001 22.5 33.2001 22.5 33.6001 21.5L34.2001 19.2C34.4001 18.3 34.7001 17.5 35.1001 16.7C35.8001 15.5 35.6001 14 34.7001 13.1Z" fill="#F8AAA0"/>
<path d="M32.7001 14.1C32.1001 14.1 31.7001 14.6 31.7001 15.1C31.7001 15.7 32.2001 16.1 32.7001 16.1C33.3001 16.1 33.7001 15.6 33.7001 15.1C33.7001 14.5 33.2001 14.1 32.7001 14.1Z" fill="#F8AAA0"/>
<path d="M33.3 51.7C42.6336 51.7 50.2 44.1336 50.2 34.8C50.2 25.4664 42.6336 17.9 33.3 17.9C23.9664 17.9 16.4 25.4664 16.4 34.8C16.4 44.1336 23.9664 51.7 33.3 51.7Z" fill="#61C2C8"/>
<path d="M12.6 38.2C12.2 38.9 12.1 39.6 12.2 40.4C12.4 41.2 12.8 41.8 13.5 42.2C14.6 42.9 16.2 42.7 17.2 41.9C17.9 41.3 18.7 40.8 19.5 40.4L21.6 39.3C22.5 38.7 22.2 37.3 21.1 37.2L18.8 37.1C17.9 37.1 17 37 16.1 36.8C14.8 36.5 13.3 37.1 12.6 38.2Z" fill="#F8AAA0"/>
<path d="M14.1 40C14.2 40.6 14.8 40.9 15.3 40.8C15.9 40.7 16.2 40.1 16.1 39.6C16 39 15.4 38.7 14.9 38.8C14.3 38.9 13.9 39.4 14.1 40Z" fill="#F8AAA0"/>
<path d="M18.7 19.4C18.1 19.4 17.6 19.6 17.2 20C16.8 20.4 16.5 20.9 16.5 21.5C16.5 22.4 17.2 23.4 18.1 23.7C18.7 23.9 19.3 24.2 19.9 24.6L21.4 25.5C22.1 25.8 22.9 25.1 22.6 24.4L21.7 22.9C21.4 22.3 21.1 21.7 20.9 21.1C20.6 20.2 19.7 19.4 18.7 19.4Z" fill="#F8AAA0"/>
<path d="M18.1 21C17.8 21.3 17.8 21.8 18.1 22.1C18.4 22.4 18.9 22.4 19.2 22.1C19.5 21.8 19.5 21.3 19.2 21C18.9 20.7 18.4 20.7 18.1 21Z" fill="#F8AAA0"/>
<path d="M42.7 51.1C43.3 51.1 43.8 50.9 44.3 50.5C44.7 50.1 45 49.6 45 49C45 48.1 44.3 47.1 43.5 46.8C42.9 46.6 42.3 46.3 41.7 45.9L40.2 45C39.5 44.7 38.7 45.4 39 46.1L39.8 47.6C40.1 48.2 40.4 48.8 40.6 49.5C40.9 50.3 41.8 51.1 42.7 51.1Z" fill="#F8AAA0"/>
<path d="M43.3 49.5C43.6 49.2 43.6 48.7 43.3 48.4C43 48.1 42.5 48.1 42.2 48.4C41.9 48.7 41.9 49.2 42.2 49.5C42.5 49.8 43 49.8 43.3 49.5Z" fill="#F8AAA0"/>
<path d="M24.5001 52.9C24.7001 53.6 25.3001 54.2 26.0001 54.6C26.7001 55 27.5001 55 28.2001 54.8C29.4001 54.4 30.3001 53.1 30.3001 51.8C30.3001 50.9 30.4001 50 30.6001 49.1L31.1001 46.8C31.2001 45.7 30.0001 45.1 29.2001 45.8L27.6001 47.5C27.0001 48.2 26.3001 48.8 25.6001 49.3C24.7001 50.2 24.1001 51.7 24.5001 52.9Z" fill="#F8AAA0"/>
<path d="M26.8 53.0001C27.3 53.3001 27.9 53.1001 28.2 52.5001C28.5 52.0001 28.3 51.4 27.7 51.1C27.2 50.8 26.6 51 26.3 51.6C26.1 52.1 26.3 52.7001 26.8 53.0001Z" fill="#F8AAA0"/>
<path d="M52.4 44.6C53.1 44.3 53.7 43.8 54.1 43.1C54.4 42.4 54.5 41.6 54.2 40.9C53.8 39.7 52.5 38.8 51.2 38.8C50.3 38.8 49.4 38.7 48.5 38.5L46.2 38.1C45.1 38 44.5 39.3 45.3 40.1L47.1 41.6C47.8 42.2 48.4 42.8 49 43.5C49.7 44.5 51.3 45 52.4 44.6Z" fill="#F8AAA0"/>
<path d="M52.4 42.3C52.6 41.8 52.4 41.2 51.9 40.9C51.4 40.7 50.8 40.9 50.5 41.4C50.3 41.9 50.5 42.5 51 42.8C51.6 43 52.2 42.8 52.4 42.3Z" fill="#F8AAA0"/>
<path d="M53.9001 25.7C54.1001 24.9 54.0001 24.2 53.5001 23.5C53.1001 22.8 52.4001 22.4 51.7001 22.2C50.5001 21.9 49.0001 22.6 48.3001 23.6C47.8001 24.4 47.3001 25.1 46.6001 25.7L45.0001 27.4C44.4001 28.2 45.1001 29.4 46.1001 29.2L48.3001 28.5C49.2001 28.2 50.1001 28.1 50.9001 28C52.4001 27.9 53.6001 26.9 53.9001 25.7Z" fill="#F8AAA0"/>
<path d="M52 24.5C51.7 24 51.1 23.9 50.6 24.2C50.1 24.5 50 25.1 50.3 25.6C50.6 26.1 51.2 26.2 51.7 25.9C52.2 25.6 52.3 25 52 24.5Z" fill="#F8AAA0"/>
<path d="M34.7001 13.1C34.1001 12.6 33.4001 12.2 32.6001 12.2C31.8001 12.2 31.1001 12.5 30.5001 13.1C29.6001 14 29.4001 15.6 29.9001 16.7C30.3001 17.5 30.6001 18.4 30.8001 19.2L31.4001 21.5C31.8001 22.5 33.2001 22.5 33.6001 21.5L34.2001 19.2C34.4001 18.3 34.7001 17.5 35.1001 16.7C35.8001 15.5 35.6001 14 34.7001 13.1Z" fill="#F8AAA0"/>
<path d="M32.7001 14.1C32.1001 14.1 31.7001 14.6 31.7001 15.1C31.7001 15.7 32.2001 16.1 32.7001 16.1C33.3001 16.1 33.7001 15.6 33.7001 15.1C33.7001 14.5 33.2001 14.1 32.7001 14.1Z" fill="#F8AAA0"/>
<path d="M45.1001 17.5C45.1001 17 44.8001 16.5 44.4001 16.1C44.0001 15.8 43.5001 15.6 42.9001 15.6C42.0001 15.7 41.2001 16.4 41.0001 17.3C40.8001 17.9 40.6001 18.5 40.4001 19.1L39.7001 20.6C39.5001 21.3 40.2001 21.9 40.8001 21.6L42.1001 20.7C42.6001 20.3 43.2001 20 43.7001 19.8C44.6001 19.3 45.1001 18.4 45.1001 17.5Z" fill="#F8AAA0"/>
<path d="M43.5 17.2001C43.2 16.9001 42.7 17.0001 42.5 17.3001C42.2 17.6001 42.3 18.1001 42.6 18.3001C42.9 18.6001 43.4 18.5001 43.6 18.2001C43.9 17.9001 43.8 17.4001 43.5 17.2001Z" fill="#F8AAA0"/>
<path d="M32.9001 37.2C32.7001 36.4 32.0001 35.8 31.1001 35.7C29.6001 35.6 27.6001 37.1 28.9001 38.7C29.3001 39.2 29.9001 39.4 30.6001 39.4C31.4001 39.4 32.4001 39.1 32.8001 38.4C32.9001 38 33.0001 37.6 32.9001 37.2Z" fill="#D7EBEA"/>
<path d="M40.0001 33C40.0001 31.9 39.4001 30.9 38.2001 30.6C35.6001 29.9 33.6001 33 35.0001 35.1C35.6001 36 36.6001 36.5 37.6001 36.3C39.2001 36.1 40.1001 34.5 40.0001 33Z" fill="#D7EBEA"/>
<path d="M30.4001 31.1C30.2001 29.7 28.3001 28.9 27.2001 30.1C26.2001 31.3 27.0001 33.2 28.6001 33.2C29.3001 33.2 30.0001 32.7 30.3001 32C30.4001 31.7 30.5001 31.4 30.4001 31.1Z" fill="#D7EBEA"/>
<path d="M58.1001 31.6C56.7001 29.3 52.6001 31.2 54.3001 33.8C54.9001 34.6 56.0001 35 56.9001 34.7C58.1001 34.2 58.8001 32.8 58.1001 31.6Z" fill="#D7EBEA"/>
<path d="M14.5 28.6C14.3 27.5 12.9 26.8 11.6 27.3C8.30005 28.6 11.5 32.6 13.9 30.3C14.5 29.8 14.6 29.2 14.5 28.6Z" fill="#D7EBEA"/>
<path d="M40.4001 55.3C40.3001 55 40.0001 54.8 39.7001 54.5C38.6001 53.6 36.6001 53.9 35.7001 54.8C34.3001 56.2 36.3001 57.5 37.6001 57.8C39.3001 58.1 41.2001 56.8 40.4001 55.3Z" fill="#D7EBEA"/>
</svg>
