<svg width="67" height="67" viewBox="0 0 67 67" fill="none" xmlns="http://www.w3.org/2000/svg">
<path d="M33.5 67C52.0015 67 67 52.0015 67 33.5C67 14.9985 52.0015 0 33.5 0C14.9985 0 0 14.9985 0 33.5C0 52.0015 14.9985 67 33.5 67Z" fill="#A0DADE"/>
<path d="M33.5 26.4L47.6 31.1V44.8C39.2 50.8 27.8 50.8 19.3 44.8V31.1L33.5 26.4Z" fill="white"/>
<path d="M50.1 24.8C52.1 24.8 53.6 26.4 53.6 28.3V37.2C53.6 40.8 51.6 44.2 48.4 45.8C44 49 38.7 50.6 33.5 50.6C28.3 50.6 23.1 49 18.6 45.8C15.4 44.2 13.4 40.8 13.4 37.2V28.3C13.4 26.3 15 24.8 16.9 24.8C18.8 24.8 20.4 26.4 20.4 28.3V29L33.1 24.8C33.3 24.7 33.6 24.7 33.8 24.8L46.5 29V28.3C46.5 26.4 48.1 24.8 50.1 24.8ZM33.5 27.2L20.5 31.5V44.2C28.3 49.7 38.8 49.7 46.6 44.2V31.6L33.5 27.2ZM42.4 41.3C43 41 43.7 41.2 44 41.7C44.3 42.3 44.1 43 43.6 43.3C40.6 45 37.1 46 33.5 46C29.9 46 26.5 45.1 23.4 43.3C22.8 43 22.6 42.2 23 41.7C23.4 41.2 24 40.9 24.6 41.3C27.3 42.8 30.4 43.6 33.5 43.6C36.6 43.6 39.8 42.8 42.4 41.3ZM50.1 27.1C49.4 27.1 48.9 27.6 48.9 28.3V42.5C50.4 41.2 51.2 39.2 51.2 37.1V28.3C51.3 27.7 50.7 27.1 50.1 27.1ZM16.9 27.1C16.2 27.1 15.7 27.6 15.7 28.3V37.2C15.7 39.3 16.6 41.2 18 42.6V28.3C18.1 27.7 17.6 27.1 16.9 27.1ZM42.4 36.6C43 36.3 43.7 36.5 44 37C44.3 37.6 44.1 38.3 43.6 38.6C40.6 40.3 37.1 41.3 33.5 41.3C29.9 41.3 26.5 40.4 23.4 38.6C22.8 38.3 22.6 37.5 23 37C23.4 36.5 24 36.2 24.6 36.6C27.3 38.1 30.4 38.9 33.5 38.9C36.6 38.9 39.8 38.1 42.4 36.6ZM40.6 31.9C41.3 31.9 41.8 32.4 41.8 33.1C41.8 33.8 41.3 34.3 40.6 34.3H26.4C25.7 34.3 25.2 33.8 25.2 33.1C25.2 32.4 25.7 31.9 26.4 31.9H40.6Z" fill="#36AFC1"/>
</svg>
