<svg width="67" height="67" viewBox="0 0 67 67" fill="none" xmlns="http://www.w3.org/2000/svg">
<path d="M33.5 67C52.0015 67 67 52.0015 67 33.5C67 14.9985 52.0015 0 33.5 0C14.9985 0 0 14.9985 0 33.5C0 52.0015 14.9985 67 33.5 67Z" fill="#A0DADE"/>
<path d="M24.3227 56.1133C24.8562 56.0402 25.3169 55.8459 25.632 55.4091C26.262 54.5356 26.2612 53.2987 25.4119 52.5716L24.3927 51.6991L20.0732 47.9425L19.054 47.0701C18.3017 46.3672 16.9435 46.4408 16.3135 47.3143C15.6834 48.1879 15.6842 49.4248 16.5335 50.1519L22.9885 55.6776C23.304 56.0655 23.7892 56.1864 24.3227 56.1133Z" fill="#FEEFD8"/>
<path d="M24.1687 42.6769L28.5852 46.4577L24.2956 51.6749L19.9519 48.0153L24.1687 42.6769Z" fill="white"/>
<path d="M28.5852 46.4577L32.3223 49.6568L34.8185 46.672L32.8771 44.9513L24.7964 38.0926L22.9278 36.4931L20.4316 39.4778L28.5852 46.4577Z" fill="#FEEFD8"/>
<path d="M30.5401 31.1767L38.5239 38.0112L32.8772 44.9513L24.7964 38.0926L30.5401 31.1767Z" fill="white"/>
<path d="M30.5401 31.1767L38.5239 38.0111L41.1655 34.8565L33.1089 27.9008L30.5401 31.1767Z" fill="#FEEFD8"/>
<path d="M41.1655 34.8565L45.1884 29.882C45.9155 29.0327 45.8419 27.6745 44.9925 26.9474L44.7498 26.6808L40.3333 22.9L40.0906 22.6334C39.2413 21.9063 37.9801 22.0041 37.2531 22.8535L33.2301 27.828L41.1655 34.8565Z" fill="#D7EBEA"/>
<path d="M46.7128 24.1814C47.7549 22.8953 47.584 21.1007 46.3221 19.9615C45.1088 19.0407 43.2171 19.1874 42.2963 20.4007L40.2121 22.9729L44.6286 26.7536L46.7128 24.1814Z" fill="#FEEFD8"/>
<path d="M23.3519 55.0468L16.897 49.521C16.3874 49.0848 16.3626 48.3572 16.7019 47.8234C16.8715 47.5565 17.1139 47.4108 17.5262 47.4106C17.8415 47.3861 18.1326 47.4587 18.3753 47.7253L24.8302 53.2511C25.0971 53.4207 25.2186 53.7601 25.2431 54.0754C25.3887 54.3179 25.292 54.706 25.0253 54.9487C24.8557 55.2156 24.6133 55.3613 24.201 55.3615C23.8857 55.386 23.5946 55.3134 23.3519 55.0468ZM24.2665 43.938L27.4211 46.5797L24.1495 50.6079L20.9948 47.9662L24.2665 43.938ZM21.6686 39.477L23.0257 37.7542L24.3118 38.7963L25.5979 39.8384C25.9376 40.1292 26.4469 40.1531 26.762 39.7163C27.0528 39.3766 26.9797 38.8431 26.64 38.5523L26.0333 38.0918L30.6621 32.3408L37.4568 38.1574L32.828 43.9084L32.2214 43.4479C31.8816 43.1571 31.3723 43.1332 31.0573 43.5699C30.7664 43.9097 30.8395 44.4432 31.1793 44.734L33.7273 46.9153L32.3702 48.6381L21.6686 39.477ZM38.6357 23.0951C38.951 23.0707 39.3391 23.1675 39.4848 23.4099L39.7275 23.6765L44.4109 27.6269C44.6536 27.8935 44.7993 28.136 44.8237 28.4513C44.8482 28.7665 44.7514 29.1547 44.509 29.3003L41.0677 33.5954L34.273 27.7788L37.7143 23.4838C37.9567 23.3381 38.2234 23.0954 38.6357 23.0951ZM45.8375 20.6652C46.2742 20.9802 46.5414 21.5622 46.6145 22.0957C46.6634 22.7263 46.5424 23.2114 46.1304 23.624L44.5308 25.4925L41.4004 22.7538L42.9999 20.8853C43.63 20.0118 44.9881 19.9382 45.8375 20.6652ZM33.2309 29.0649L40.0256 34.8815L38.426 36.75L31.6314 30.9335L33.2309 29.0649ZM26.2144 55.9666C26.6748 55.36 26.8684 54.5837 26.8437 53.8561C26.8189 53.1285 26.4548 52.5224 25.9694 51.9892L25.5326 51.6741L28.8043 47.646L31.9589 50.2876C32.2986 50.5784 32.808 50.6024 33.123 50.1656L35.6192 47.1808C35.7646 47.011 35.813 46.8169 35.8614 46.6229C35.8128 46.4046 35.7641 46.1864 35.5943 46.0409L34.3323 44.9018L39.5186 38.5684L42.0632 35.3895L42.0874 35.2925L42.1116 35.1955L45.7709 30.4395C46.2313 29.8328 46.5219 29.0808 46.4001 28.329C46.3512 27.6984 46.0841 27.1165 45.6715 26.7045L47.2953 24.7389C47.9011 23.9624 48.143 22.9921 48.0939 21.9492C48.0691 21.2217 47.7291 20.5185 47.3408 20.0094L52.9633 13.1664C53.2541 12.8266 53.181 12.2931 52.8413 12.0023C52.5015 11.7114 52.1134 11.6147 51.7984 12.0514L46.1759 18.8945C44.7202 18.1193 42.7801 18.4601 41.7138 19.8432L40.0901 21.8088C39.5563 21.4696 38.9741 21.3244 38.4164 21.4945C37.6888 21.5193 36.9615 21.9563 36.501 22.5629L32.5023 27.4404L32.4781 27.5374L32.4539 27.6345L29.9093 30.8133L24.723 37.1468L23.4611 36.0076C23.2913 35.8622 23.0972 35.8138 22.9031 35.7655C22.6849 35.8141 22.4666 35.8627 22.4183 36.0568L19.922 39.0416C19.7766 39.2114 19.7282 39.4055 19.6798 39.5996C19.7285 39.8178 19.7771 40.0361 19.947 40.1815L23.1016 42.8231L19.927 46.8755L19.4902 46.5605C18.8836 46.1 18.2286 45.8336 17.501 45.8584C16.7492 45.9801 16.0461 46.3201 15.5856 46.9267C15.1252 47.5334 14.9317 48.3096 14.9564 49.0372C14.9811 49.7648 15.3211 50.4679 16.0247 50.9525L22.4797 56.4783C23.0863 56.9387 23.7413 57.2051 24.4931 57.0833C25.1479 56.9374 25.851 56.5974 26.2144 55.9666Z" fill="#36AFC1"/>
</svg>
