<svg width="67" height="67" viewBox="0 0 67 67" fill="none" xmlns="http://www.w3.org/2000/svg">
<path d="M33.5 0C15 0 0 15 0 33.5C0 52 15 67 33.5 67C52 67 67 52 67 33.5C67 15 52 0 33.5 0ZM57.8 51.8H46.1C45.7 51.8 45.3 51.5 45.3 51V45.4H8.5C6.8 45.4 5.4 44.1 5.4 42.3H11.3V16.8C11.3 16.3 11.7 15.8 12.3 15.8H49.7C50.2 15.8 50.7 16.2 50.7 16.8V27.4H57.9C58.3 27.4 58.7 27.8 58.7 28.2V51C58.6 51.5 58.2 51.8 57.8 51.8Z" fill="#A0DADE"/>
<path d="M46.1 27.4H48.3V19.6C48.3 19.2 48 18.8 47.5 18.8H14.3C13.9 18.8 13.5 19.2 13.5 19.6V42.3H45.4V28.2C45.3 27.8 45.7 27.4 46.1 27.4ZM24.5 30.6H23.4L22.2 27.1L21 30.6H20L18.2 25.2H19.4L20.5 28.8L21.7 25.2H22.7L23.9 28.8L25 25.2H26.2L24.5 30.6ZM33.2 30.6H32.1L31 27.1L29.8 30.6H28.7L26.9 25.2H28.1L29.2 28.8L30.4 25.2H31.4L32.6 28.8L33.7 25.2H35L33.2 30.6ZM42 30.6H40.9L39.7 27.1L38.5 30.6H37.4L35.6 25.2H36.8L37.9 28.8L39.1 25.2H40.1L41.3 28.8L42.4 25.2H43.6L42 30.6Z" fill="white"/>
<path d="M57.8 27.4H50.6V16.8C50.6 16.3 50.2 15.8 49.6 15.8H12.2C11.7 15.8 11.2 16.2 11.2 16.8V42.3H5.40002C5.40002 44 6.80002 45.4 8.50002 45.4H45.3V51C45.3 51.4 45.6 51.8 46.1 51.8H57.8C58.2 51.8 58.6 51.5 58.6 51V28.3C58.6 27.8 58.2 27.4 57.8 27.4ZM13.4 42.4V19.6C13.4 19.2 13.8 18.8 14.2 18.8H47.5C48 18.8 48.3 19.2 48.3 19.6V27.4H46.1C45.7 27.4 45.3 27.7 45.3 28.2V42.3H13.4V42.4ZM57.3 49.1H46.7V30.2H57.3V49.1V49.1Z" fill="#36AFC1"/>
<path d="M57.3 30.2H46.7V49.1H57.3V30.2Z" fill="white"/>
<path d="M24 28.8L22.7 25.2H21.7L20.5 28.8L19.4 25.2H18.2L20 30.6H21L22.2 27.1L23.4 30.6H24.5L26.3 25.2H25L24 28.8Z" fill="#36AFC1"/>
<path d="M32.7 28.8L31.5 25.2H30.5L29.3 28.8L28.2 25.2H26.9L28.7 30.6H29.8L31 27.1L32.2 30.6H33.2L35 25.2H33.8L32.7 28.8Z" fill="#36AFC1"/>
<path d="M41.5 28.8L40.2 25.2H39.2L38 28.8L36.9 25.2H35.7L37.5 30.6H38.6L39.7 27.1L40.9 30.6H42L43.8 25.2H42.5L41.5 28.8Z" fill="#36AFC1"/>
</svg>
